<svg width="40" height="30" viewBox="0 0 40 30" fill="none" xmlns="http://www.w3.org/2000/svg">
<path d="M28.7709 0C28.6346 0 28.5062 0 28.3699 0.00802085C34.3855 0.216563 39.198 5.16543 39.198 11.2292C39.198 17.293 34.3855 22.2418 28.3699 22.4504C28.5062 22.4584 28.6346 22.4584 28.7709 22.4584C34.971 22.4584 40.0001 17.4293 40.0001 11.2292C40.0001 5.02908 34.971 0 28.7709 0Z" fill="#5848D5"/>
<path d="M24.1669 20.6376L20.8704 18.1511L24.1669 20.6376Z" fill="#CCC6F3"/>
<path d="M21.2554 4.8286C22.5146 6.64131 23.2606 8.84705 23.2606 11.2292C23.2606 12.1196 23.1563 12.9858 22.9638 13.82L23.2205 13.2345H23.8621C23.8621 13.2345 24.175 13.3147 24.4156 13.3788C24.4958 13.3227 24.5359 13.2345 24.568 13.1703L25.3139 10.1865C25.354 10.1946 25.3941 10.2106 25.4342 10.2186C25.3861 10.2026 25.346 10.1865 25.3139 10.1785L25.8433 8.04496C25.8593 7.80434 25.7711 7.49954 25.3139 7.37923C25.33 7.37121 24.4878 7.17069 24.4878 7.17069L24.7926 5.95152H25.4342L27.0063 6.34454V6.35256C27.0464 6.36058 27.0865 6.3686 27.1266 6.38464L27.5598 4.66016H28.2014L29.3404 4.94089L28.8832 6.77767C28.9875 6.80173 29.0837 6.82579 29.188 6.84985L29.6051 5.17349H30.2467L31.3857 5.45422L30.9205 7.32308C32.3562 7.82038 33.407 8.5583 33.1984 9.93788C33.046 10.9485 32.4926 11.4378 31.7466 11.6062C32.7653 12.1356 33.2866 12.9537 32.7894 14.3654C32.3081 15.753 31.2895 16.138 29.9339 16.0578C29.573 16.0819 29.172 16.0578 28.7549 16.0017L28.3057 17.7903H27.664L26.5251 17.5096L26.9903 15.6487C26.886 15.6247 26.7898 15.6006 26.6855 15.5685L26.2604 17.285H25.6187L24.4798 17.0043L24.953 15.1113C24.6883 15.0472 24.4156 14.975 24.1429 14.9028L22.7713 14.5579C22.4264 15.6648 21.9211 16.6914 21.2714 17.6219C21.2875 17.6379 21.2955 17.6459 21.3115 17.662L24.2471 19.8757C25.4503 20.4693 26.7978 20.8142 28.2255 20.8463C28.1453 20.8463 28.0651 20.8463 27.9849 20.8463C33.3027 20.8463 37.6099 16.539 37.6099 11.2212C37.6099 5.90339 33.3027 1.59619 27.9849 1.59619C28.0651 1.59619 28.1453 1.59619 28.2255 1.59619C25.4423 1.6764 22.9718 2.90359 21.2554 4.8286Z" fill="#8A7AE3"/>
<path d="M29.3563 10.6838C29.8054 10.6276 30.1744 10.4191 30.3027 9.92179C30.5594 8.87908 29.3803 8.47002 28.5301 8.26147L28.0007 10.395C28.2815 10.4672 28.8108 10.6276 29.3563 10.6838Z" fill="#8A7AE3"/>
<path d="M28.851 14.4056C29.3804 14.3494 29.8135 14.1328 29.9499 13.5874C30.2466 12.4003 28.6986 11.9191 27.68 11.6785L27.0864 14.0446C27.4474 14.1329 28.1532 14.3494 28.851 14.4056Z" fill="#8A7AE3"/>
<path d="M24.231 19.8838L24.8245 20.333C25.1453 20.4452 25.4662 20.5335 25.795 20.6137C26.4928 20.7741 27.2227 20.8623 27.9687 20.8623C28.0489 20.8623 28.1291 20.8623 28.2093 20.8623C26.7816 20.8142 25.4341 20.4693 24.231 19.8838Z" fill="#5848D5"/>
<path d="M28.2255 6.77766C28.5303 6.84985 28.8351 6.91402 29.1398 6.99422L29.1719 6.84985C29.0677 6.82579 28.9714 6.80172 28.8671 6.77766L29.3243 4.94089L28.1854 4.66016H27.5437L28.6827 4.94089L28.2255 6.77766Z" fill="#5848D5"/>
<path d="M25.6106 17.2848H26.2523L26.6774 15.5684C26.4768 15.5203 26.2763 15.4641 26.0758 15.408L25.6106 17.2848Z" fill="#5848D5"/>
<path d="M26.3565 6.36051C26.5891 6.41666 26.8378 6.47281 27.0864 6.52895L27.1185 6.38458C27.0784 6.37656 27.0383 6.36854 26.9982 6.35249V6.34447L25.4261 5.95947H24.7844L26.3565 6.36051Z" fill="#5848D5"/>
<path d="M30.2627 7.32293C31.6984 7.82022 32.7491 8.55814 32.5406 9.93773C32.3882 10.9484 31.8347 11.4376 31.0888 11.6061C32.1075 12.1354 32.6288 12.9536 32.1315 14.3652C31.7225 15.5202 30.9524 15.9854 29.9178 16.0576C31.2813 16.1378 32.2919 15.7528 32.7732 14.3652C33.2705 12.9536 32.7491 12.1354 31.7305 11.6061C32.4764 11.4376 33.0379 10.9484 33.1822 9.93773C33.3908 8.55814 32.3401 7.8122 30.9043 7.32293L31.3695 5.45407L30.2386 5.17334H29.5969L30.7359 5.45407L30.2627 7.32293Z" fill="#5848D5"/>
<path d="M27.656 17.7982H28.2977L28.7468 16.0096C28.5463 15.9855 28.3378 15.9534 28.1292 15.9133L27.656 17.7982Z" fill="#5848D5"/>
<path d="M28.8511 14.4054C28.1613 14.3493 27.4474 14.1327 27.0865 14.0445L27.68 11.6783C27.4394 11.6222 27.2228 11.5741 27.0705 11.542L26.4448 14.0445C26.9181 14.1648 28.0009 14.5017 28.8511 14.4054Z" fill="#5848D5"/>
<path d="M24.0386 13.4349C24.207 13.475 24.3273 13.4349 24.4075 13.3707C24.1669 13.3065 23.8541 13.2263 23.8541 13.2263H23.2124C23.2124 13.2343 24.0546 13.4509 24.0386 13.4349Z" fill="#5848D5"/>
<path d="M29.3563 10.6839C28.8109 10.6277 28.2815 10.4673 28.0008 10.3951L28.5301 8.2616C28.2815 8.19743 28.0649 8.15733 27.9206 8.12524L27.3511 10.3951C27.7521 10.4914 28.6424 10.7721 29.3563 10.6839Z" fill="#5848D5"/>
<path d="M24.9448 15.1113L24.4716 17.0042L25.6105 17.285L26.0758 15.4161C26.2843 15.4723 26.4768 15.5204 26.6773 15.5765C26.7816 15.6006 26.8778 15.6327 26.9821 15.6567L26.5169 17.5176L27.6559 17.7983L28.1291 15.9134C28.3376 15.9535 28.5462 15.9856 28.7467 16.0097C29.1718 16.0658 29.5648 16.0899 29.9258 16.0658C30.9605 15.9936 31.7385 15.5364 32.1395 14.3734C32.6368 12.9617 32.1155 12.1436 31.0968 11.6142C31.8428 11.4458 32.4042 10.9565 32.5486 9.9459C32.7571 8.56631 31.7064 7.82037 30.2707 7.3311L30.7359 5.46224L29.5969 5.17349L29.1798 6.84985L29.1477 6.99422C28.851 6.92204 28.5382 6.84985 28.2334 6.77766L28.6906 4.94089L27.5516 4.66016L27.1185 6.38464L27.0864 6.52901C26.8377 6.47287 26.5971 6.41672 26.3565 6.36058V6.35256L24.7844 5.95953L24.4796 7.1787C24.4796 7.1787 25.3218 7.3712 25.3058 7.38725C25.771 7.49954 25.8512 7.80433 25.8351 8.05298L25.3058 10.1865C25.3378 10.1945 25.3779 10.2106 25.4261 10.2266C25.386 10.2186 25.3459 10.2106 25.3058 10.1945L24.5598 13.1783C24.5358 13.2425 24.4876 13.3307 24.4074 13.3868C24.3272 13.451 24.2069 13.4911 24.0385 13.451C24.0465 13.467 23.2123 13.2425 23.2123 13.2425L22.9556 13.828C22.8995 14.0766 22.8273 14.3253 22.7551 14.5739L24.1267 14.9188C24.4074 14.975 24.6801 15.0472 24.9448 15.1113ZM28.5301 8.26152C29.3723 8.47006 30.5594 8.87912 30.3027 9.92183C30.1824 10.4191 29.8055 10.6277 29.3563 10.6838C28.6505 10.772 27.7521 10.4913 27.3591 10.3951L27.9286 8.12516C28.0649 8.15725 28.2815 8.19735 28.5301 8.26152ZM27.6799 11.6784C28.6986 11.919 30.2466 12.4003 29.9498 13.5874C29.8135 14.1328 29.3804 14.3493 28.851 14.4055C28.0088 14.4937 26.926 14.1649 26.4447 14.0446L27.0703 11.542C27.2227 11.5741 27.4313 11.6223 27.6799 11.6784Z" fill="#CCC6F3"/>
<path d="M22.4583 11.2292C22.4583 13.4349 21.8166 15.4963 20.7178 17.2368L21.2953 17.6699C21.2792 17.6539 21.2712 17.6459 21.2552 17.6298C21.9048 16.6994 22.4102 15.6647 22.7551 14.5659C22.8272 14.3252 22.8994 14.0766 22.9556 13.8199C23.1481 12.9858 23.2523 12.1195 23.2523 11.2292C23.2523 8.847 22.5144 6.64929 21.2471 4.82855C22.9636 2.90355 25.434 1.67636 28.1932 1.60417C28.113 1.60417 28.0328 1.60417 27.9526 1.60417C27.2868 1.60417 26.6371 1.66834 26.0115 1.79667C24.0785 2.18969 22.354 3.16824 21.0306 4.53178C20.7097 4.09866 20.3568 3.68959 19.9798 3.31261C17.9666 1.26729 15.1433 0 12.0312 0C11.8948 0 11.7665 0 11.6301 0.00802085C17.6458 0.216563 22.4583 5.16543 22.4583 11.2292Z" fill="#5848D5"/>
<path d="M5.6146 19.0415C3.89814 17.8063 2.59876 16.0176 1.98917 13.9322C1.97313 13.8761 1.95709 13.8119 1.94105 13.7558C1.72448 12.9537 1.60417 12.1035 1.60417 11.2292C1.60417 10.3389 1.72448 9.47263 1.95709 8.6545C1.96511 8.63044 1.97313 8.59836 1.98115 8.57429C2.9597 5.17345 5.75897 2.54261 9.25607 1.81271C9.3443 1.79667 9.44055 1.77261 9.5368 1.75657C9.77742 1.71646 10.01 1.68438 10.2587 1.6523C10.5795 1.62021 10.9084 1.60417 11.2452 1.60417C16.5631 1.60417 20.8703 5.91137 20.8703 11.2292C20.8703 13.074 20.3489 14.7985 19.4506 16.2663L20.7339 17.2368C21.8167 15.4963 22.4584 13.4349 22.4584 11.2292C22.4584 5.16543 17.6459 0.216563 11.6302 0.00802085C11.4939 0 11.3656 0 11.2292 0C5.02908 0 0 5.02908 0 11.2292C0 14.2691 1.21115 17.0203 3.16824 19.0415H5.6146Z" fill="#CCC6F3"/>
<path d="M16.948 19.0414V18.9692C16.9159 18.9933 16.8839 19.0174 16.8438 19.0414H16.948Z" fill="#CCC6F3"/>
<path d="M17.5897 18.4561V19.21C17.5897 19.3143 17.5576 19.4105 17.5015 19.4907C17.5576 19.4105 17.5897 19.3143 17.5897 19.21V18.4561Z" fill="#CCC6F3"/>
<path d="M20.3569 17.7662L19.0815 16.8037L20.3569 17.7662Z" fill="#CCC6F3"/>
<path d="M17.7021 16.3304C17.7182 16.3143 17.7262 16.2983 17.7423 16.2903C17.7342 16.2983 17.7182 16.3143 17.7021 16.3304Z" fill="#8A7AE3"/>
<path d="M17.6699 16.3785C17.6779 16.3625 17.694 16.3464 17.702 16.3384C17.694 16.3464 17.6779 16.3625 17.6699 16.3785Z" fill="#8A7AE3"/>
<path d="M17.8064 16.2423C17.8224 16.2343 17.8385 16.2182 17.8545 16.2102C17.8385 16.2182 17.8224 16.2343 17.8064 16.2423Z" fill="#8A7AE3"/>
<path d="M17.5896 16.6433C17.5896 16.6192 17.5896 16.6032 17.5976 16.5791C17.5896 16.5951 17.5896 16.6192 17.5896 16.6433V18.456V16.6433Z" fill="#8A7AE3"/>
<path d="M17.7581 16.2743C17.7661 16.2663 17.7821 16.2583 17.7901 16.2502C17.7821 16.2583 17.7661 16.2663 17.7581 16.2743Z" fill="#8A7AE3"/>
<path d="M1.95703 8.65443C1.96505 8.63036 1.97307 8.59828 1.98109 8.57422C1.96505 8.59828 1.95703 8.62234 1.95703 8.65443Z" fill="#8A7AE3"/>
<path d="M9.24805 1.81274C9.33628 1.7967 9.43253 1.77263 9.52878 1.75659C9.43253 1.77263 9.33628 1.78868 9.24805 1.81274Z" fill="#8A7AE3"/>
<path d="M13.4028 13.9081C13.4028 13.3386 13.1141 12.9777 12.5847 12.6809V15.007C13.0579 14.7984 13.4028 14.4295 13.4028 13.9081Z" fill="#8A7AE3"/>
<path d="M10.2266 8.59848C10.2266 9.08775 10.4592 9.41661 10.8923 9.69734V7.52368C10.4832 7.78035 10.2266 8.16535 10.2266 8.59848Z" fill="#8A7AE3"/>
<path d="M1.98929 13.9323C1.97325 13.8762 1.9572 13.812 1.94116 13.7559C1.9572 13.82 1.97325 13.8762 1.98929 13.9323Z" fill="#8A7AE3"/>
<path d="M17.6379 16.4346C17.646 16.4186 17.654 16.4026 17.662 16.3945C17.654 16.4026 17.646 16.4186 17.6379 16.4346Z" fill="#8A7AE3"/>
<path d="M17.5977 16.563C17.5977 16.547 17.6057 16.5309 17.6057 16.5149C17.6057 16.5309 17.5977 16.547 17.5977 16.563Z" fill="#8A7AE3"/>
<path d="M9.52881 1.75661C9.76943 1.71651 10.002 1.68443 10.2507 1.65234C10.002 1.67641 9.76141 1.70849 9.52881 1.75661Z" fill="#8A7AE3"/>
<path d="M17.6138 16.499C17.6218 16.483 17.6298 16.4589 17.6378 16.4429C17.6218 16.4589 17.6138 16.475 17.6138 16.499Z" fill="#8A7AE3"/>
<path d="M17.9185 16.186C17.9345 16.1779 17.9505 16.1779 17.9666 16.1699C17.9505 16.1779 17.9345 16.1779 17.9185 16.186Z" fill="#8A7AE3"/>
<path d="M17.9749 16.1701C17.9909 16.1701 18.015 16.1621 18.031 16.1621C18.015 16.1621 17.9989 16.1621 17.9749 16.1701Z" fill="#8A7AE3"/>
<path d="M18.1992 16.178C18.2072 16.178 18.2153 16.186 18.2233 16.186C18.2153 16.186 18.2072 16.178 18.1992 16.178Z" fill="#8A7AE3"/>
<path d="M18.2715 16.2102C18.2795 16.2102 18.2875 16.2182 18.2955 16.2182C18.2875 16.2102 18.2795 16.2102 18.2715 16.2102Z" fill="#8A7AE3"/>
<path d="M17.9027 16.186C17.8866 16.1941 17.8706 16.1941 17.8625 16.2021C17.8786 16.2021 17.8946 16.1941 17.9027 16.186Z" fill="#8A7AE3"/>
<path d="M18.1272 16.1621C18.1352 16.1621 18.1432 16.1621 18.1593 16.1701C18.1513 16.1701 18.1352 16.1621 18.1272 16.1621Z" fill="#8A7AE3"/>
<path d="M19.0815 16.8037L18.3596 16.2583L19.0815 16.8037Z" fill="#8A7AE3"/>
<path d="M20.8542 11.2293C20.8542 5.91145 16.547 1.60425 11.2292 1.60425C11.3094 1.60425 11.3896 1.60425 11.4698 1.60425C6.26431 1.73258 2.08545 5.99165 2.08545 11.2293C2.08545 14.4456 3.66556 17.3011 6.09588 19.0416H16.8438C16.8759 19.0175 16.908 18.9935 16.9481 18.9694V16.6433C16.9481 16.3305 17.0684 16.0418 17.293 15.8332C17.5015 15.6327 17.7823 15.5204 18.071 15.5204C18.3116 15.5204 18.5442 15.6006 18.7448 15.745L19.4346 16.2664C20.3329 14.7986 20.8542 13.0741 20.8542 11.2293ZM12.5847 17.0043V18.3518H11.9511H11.518H10.8843V17.0203C8.27755 16.8118 7.01025 14.7745 7.01025 14.7745L8.57432 13.5874C8.57432 13.5874 8.64651 13.7157 8.7989 13.9002L9.20797 13.5874C9.20797 13.5874 9.79349 14.582 10.8843 15.0312V12.0153C9.23203 11.4378 7.53161 10.5395 7.53161 8.59843C7.53161 7.1226 8.7989 5.6628 10.8843 5.45426V4.10675H11.518H11.9511H12.5847V5.45426C14.6381 5.67884 15.7851 7.09051 15.7851 7.09051L14.2691 8.29364C14.2691 8.29364 14.1729 8.17333 13.9884 8.01291L13.6355 8.29364C13.6355 8.29364 13.2585 7.81239 12.5847 7.49958V10.4272C12.6329 10.4593 12.7051 10.4753 12.7692 10.4914C14.5739 11.133 16.0899 11.887 16.0899 13.9082C16.0899 15.753 14.5258 16.8278 12.5847 17.0043Z" fill="#8A7AE3"/>
<path d="M12.5848 12.6811C12.4003 12.5768 12.1918 12.4805 11.9512 12.3843V15.1916C12.1758 15.1515 12.3923 15.0953 12.5848 15.0071V12.6811Z" fill="#5848D5"/>
<path d="M10.8923 15.2076V15.0312C9.80147 14.582 9.21595 13.5874 9.21595 13.5874L8.80688 13.9002C9.14376 14.3173 9.8496 15.0392 10.8923 15.2076Z" fill="#5848D5"/>
<path d="M9.59302 8.59838C9.59302 9.28818 10.0502 9.65714 10.8924 10.0261V9.69724C10.4593 9.41651 10.2267 9.08765 10.2267 8.59838C10.2267 8.16525 10.4753 7.78025 10.8924 7.52359V7.28296C10.1144 7.44338 9.59302 7.97275 9.59302 8.59838Z" fill="#5848D5"/>
<path d="M15.1515 7.09044L13.9885 8.01284C14.1729 8.17326 14.2692 8.29357 14.2692 8.29357L15.7851 7.09044C15.7851 7.09044 14.6382 5.67878 12.5848 5.45419V4.10669H11.9512V5.45419C14.0125 5.67878 15.1515 7.09044 15.1515 7.09044Z" fill="#5848D5"/>
<path d="M12.7693 10.4913C12.7051 10.4753 12.6329 10.4592 12.5848 10.4271V7.49952C12.4003 7.41129 12.1838 7.33108 11.9512 7.28296V10.4271C11.9993 10.4592 12.0715 10.4753 12.1357 10.4913C13.9403 11.133 15.4563 11.8869 15.4563 13.9082C15.4563 15.753 13.8922 16.8278 11.9512 17.0042V18.3517H12.5848V17.0042C14.5178 16.8278 16.0899 15.753 16.0899 13.9082C16.0899 11.8869 14.574 11.133 12.7693 10.4913Z" fill="#5848D5"/>
<path d="M15.4562 13.9082C15.4562 11.8869 13.9403 11.133 12.1356 10.4913C12.0714 10.4752 11.9992 10.4592 11.9511 10.4271V7.28295C12.1837 7.33107 12.3922 7.41128 12.5847 7.49951C13.2585 7.82035 13.6355 8.29358 13.6355 8.29358L13.9884 8.01285L15.1514 7.09045C15.1514 7.09045 14.0044 5.67878 11.9511 5.45419V4.10669H11.518H10.8843V5.45419C8.7989 5.66274 7.53161 7.12253 7.53161 8.59837C7.53161 10.5394 9.23203 11.4378 10.8843 12.0153V15.0311V15.2076C9.84161 15.0391 9.13578 14.3172 8.7989 13.9002C8.65453 13.7157 8.57432 13.5873 8.57432 13.5873L7.01025 14.7744C7.01025 14.7744 8.27755 16.8117 10.8843 17.0203V18.3517H11.518H11.9511V17.0042C13.8921 16.8278 15.4562 15.753 15.4562 13.9082ZM11.9511 12.3842C12.1917 12.4805 12.4003 12.5767 12.5847 12.681C13.1141 12.9778 13.4029 13.3387 13.4029 13.9082C13.4029 14.4295 13.058 14.7985 12.5847 15.007C12.3922 15.0953 12.1757 15.1514 11.9511 15.1915V12.3842ZM10.8923 7.52357V9.69723V10.0261C10.0502 9.65712 9.59297 9.28816 9.59297 8.59837C9.59297 7.97274 10.1143 7.44337 10.8923 7.28295V7.52357Z" fill="#CCC6F3"/>
<path d="M2.08543 11.2293C2.08543 5.99165 6.26429 1.73258 11.4698 1.60425C11.3896 1.60425 11.3094 1.60425 11.2292 1.60425C10.9003 1.60425 10.5715 1.62029 10.2426 1.65237C10.002 1.67644 9.76138 1.70852 9.52076 1.75664C9.42451 1.77269 9.33628 1.78873 9.24003 1.81279C5.74294 2.54269 2.94366 5.17353 1.96511 8.57437C1.95709 8.59843 1.94907 8.63052 1.94105 8.65458C1.71647 9.47271 1.58813 10.339 1.58813 11.2293C1.58813 12.1035 1.70845 12.9538 1.92501 13.7558C1.94105 13.812 1.95709 13.8762 1.97314 13.9323C2.58272 16.0177 3.87408 17.8064 5.59856 19.0416H6.07981C3.66554 17.3011 2.08543 14.4456 2.08543 11.2293Z" fill="#5848D5"/>
<path d="M26.8056 23.0839C26.8858 22.8914 26.8377 22.6508 26.6532 22.5144L24.1668 20.6375L20.8782 18.1511L20.3649 17.7661L19.0815 16.8036L18.3597 16.2582C18.3356 16.2421 18.3196 16.2261 18.2955 16.218C18.2875 16.218 18.2795 16.21 18.2714 16.21C18.2554 16.202 18.2394 16.194 18.2233 16.194C18.2153 16.194 18.2073 16.186 18.1992 16.186C18.1832 16.186 18.1672 16.1779 18.1591 16.1779C18.1511 16.1779 18.1431 16.1779 18.1271 16.1699C18.111 16.1699 18.103 16.1699 18.087 16.1699C18.0709 16.1699 18.0629 16.1699 18.0469 16.1699C18.0388 16.1699 18.0388 16.1699 18.0308 16.1699C18.0148 16.1699 17.9907 16.1699 17.9747 16.1779H17.9666C17.9506 16.1779 17.9346 16.186 17.9185 16.194C17.9105 16.194 17.9105 16.194 17.9025 16.202C17.8864 16.21 17.8704 16.21 17.8624 16.218C17.8624 16.218 17.8544 16.218 17.8544 16.2261C17.8383 16.2341 17.8223 16.2421 17.8062 16.2582L17.7982 16.2662C17.7822 16.2742 17.7741 16.2822 17.7661 16.2902L17.7581 16.2983C17.7421 16.3143 17.734 16.3223 17.718 16.3384C17.71 16.3544 17.6939 16.3704 17.6859 16.3785C17.6859 16.3865 17.6779 16.3865 17.6779 16.3945C17.6699 16.4105 17.6618 16.4186 17.6538 16.4346C17.6538 16.4346 17.6538 16.4426 17.6458 16.4426C17.6378 16.4587 17.6298 16.4827 17.6217 16.4988C17.6217 16.5068 17.6217 16.5068 17.6217 16.5148C17.6137 16.5309 17.6137 16.5469 17.6137 16.5629C17.6137 16.571 17.6137 16.571 17.6137 16.579C17.6137 16.603 17.6057 16.6191 17.6057 16.6432V18.4559V19.2098C17.6057 19.3141 17.5736 19.4103 17.5175 19.4906C17.4292 19.6109 17.2849 19.6911 17.1245 19.6911H2.32598C2.11744 19.6911 1.93296 19.8274 1.86879 20.0199C1.85275 20.0681 1.84473 20.1242 1.84473 20.1723V25.6265C1.84473 25.8912 2.06129 26.1078 2.32598 26.1078H17.1084C17.3731 26.1078 17.5897 26.3243 17.5897 26.589V29.1557C17.5897 29.1797 17.5897 29.1958 17.5977 29.2198C17.5977 29.2279 17.5977 29.2279 17.5977 29.2359C17.5977 29.2519 17.6057 29.268 17.6057 29.284C17.6057 29.292 17.6057 29.292 17.6057 29.3001C17.6137 29.3161 17.6217 29.3402 17.6298 29.3562C17.6298 29.3642 17.6298 29.3642 17.6378 29.3642C17.6458 29.3803 17.6538 29.3883 17.6618 29.4043C17.6618 29.4123 17.6699 29.4123 17.6699 29.4204C17.6779 29.4364 17.6939 29.4524 17.702 29.4605C17.718 29.4765 17.726 29.4845 17.7421 29.5006C17.7501 29.5006 17.7501 29.5086 17.7581 29.5086C17.7661 29.5166 17.7822 29.5246 17.7902 29.5327C17.7982 29.5327 17.7982 29.5407 17.8062 29.5407C17.8223 29.5487 17.8383 29.5567 17.8544 29.5728C17.8544 29.5728 17.8624 29.5728 17.8624 29.5808C17.8784 29.5888 17.8864 29.5968 17.9025 29.5968C17.9105 29.5968 17.9105 29.5968 17.9185 29.6048C17.9346 29.6129 17.9506 29.6129 17.9666 29.6209H17.9747C17.9907 29.6209 18.0148 29.6289 18.0308 29.6289C18.0388 29.6289 18.0388 29.6289 18.0469 29.6289C18.0549 29.6289 18.0709 29.6289 18.0789 29.6289C18.095 29.6289 18.111 29.6289 18.119 29.6289C18.1271 29.6289 18.1351 29.6289 18.1431 29.6289C18.1591 29.6289 18.1752 29.6209 18.1832 29.6209C18.1912 29.6209 18.1992 29.6129 18.2073 29.6129C18.2233 29.6048 18.2394 29.5968 18.2554 29.5968C18.2634 29.5968 18.2714 29.5888 18.2795 29.5888C18.3035 29.5808 18.3276 29.5647 18.3436 29.5487L22.9717 26.0516L26.6292 23.2924C26.7174 23.2283 26.7735 23.1561 26.8056 23.0839Z" fill="#5848D5"/>
<path d="M28.3697 0.00802085C28.2333 0 28.105 0 27.9686 0C24.8565 0 22.0332 1.2673 20.0039 3.32063C20.3809 3.69761 20.7338 4.10668 21.0546 4.5398C22.3781 3.17626 24.1026 2.19771 26.0356 1.80469C26.6612 1.67636 27.3109 1.61219 27.9766 1.61219C33.2945 1.61219 37.6017 5.91939 37.6017 11.2372C37.6017 16.555 33.2945 20.8622 27.9766 20.8622C27.2307 20.8622 26.5008 20.774 25.803 20.6136C25.4741 20.5334 25.1453 20.4452 24.8325 20.3329L27.0462 22.0012C27.2066 22.1215 27.3189 22.2739 27.3991 22.4423C27.5916 22.4504 27.7841 22.4584 27.9766 22.4584C28.113 22.4584 28.2413 22.4584 28.3777 22.4504C34.3933 22.2418 39.2058 17.293 39.2058 11.2292C39.1978 5.16543 34.3853 0.216563 28.3697 0.00802085Z" fill="#CCC6F3"/>
</svg>
