<svg width="36" height="36" viewBox="0 0 36 36" fill="none" xmlns="http://www.w3.org/2000/svg">
<g clip-path="url(#clip0)">
<circle cx="28" cy="28" r="8" fill="white"/>
<path d="M28.008 20C29.4573 20 30.7947 20.357 32.02 21.071C33.2453 21.785 34.215 22.7547 34.929 23.98C35.643 25.2053 36 26.5427 36 27.992C36 30.187 35.2222 32.0705 33.6665 33.6425C32.1108 35.2145 30.2247 36.0003 28.008 36C26.5693 36 25.2347 35.6457 24.004 34.937C22.7733 34.2283 21.7983 33.2587 21.079 32.028C20.3597 30.7973 20 29.452 20 27.992C20 26.9157 20.2078 25.8873 20.6235 24.907C21.0392 23.9267 21.604 23.0768 22.318 22.3575C23.032 21.6382 23.8845 21.0653 24.8755 20.639C25.8665 20.2127 26.9108 19.9995 28.0085 19.9995L28.008 20ZM26.6335 25.4665C26.4418 25.4025 26.0235 25.2587 25.3785 25.035C24.7335 24.8113 24.2353 24.6515 23.884 24.5555C23.4257 24.3852 23.0048 24.3398 22.6215 24.4195C22.2382 24.4992 22.1103 24.7097 22.238 25.051C22.2807 25.2213 22.3712 25.3865 22.5095 25.5465C22.7012 25.7915 22.9197 26.0472 23.165 26.3135C23.229 26.3668 23.2717 26.4573 23.293 26.585C23.325 26.9153 23.5222 27.0805 23.8845 27.0805C23.9592 27.0805 24.0178 27.1018 24.0605 27.1445C24.3162 27.2938 24.6945 27.5868 25.1955 28.0235C25.1635 28.0342 25.1208 28.0608 25.0675 28.1035C25.0142 28.1462 24.9715 28.1782 24.9395 28.1995C24.0338 28.8388 23.2985 29.4782 22.7335 30.1175C22.4992 30.4052 22.3393 30.6557 22.254 30.869C22.1153 31.2207 22.2325 31.4552 22.6055 31.5725C22.9358 31.6365 23.37 31.5885 23.908 31.4285C24.446 31.2685 24.9868 31.0767 25.5305 30.853C26.0742 30.6293 26.4418 30.5015 26.6335 30.4695C26.7188 31.1195 26.7668 31.5777 26.7775 31.844C26.7775 31.8973 26.7508 31.9773 26.6975 32.084C26.5588 32.361 26.6122 32.6008 26.8575 32.8035C26.9748 32.9528 27.0335 33.0382 27.0335 33.0595C27.0975 33.2302 27.1615 33.398 27.2255 33.563C27.2895 33.728 27.3428 33.8612 27.3855 33.9625C27.4282 34.0638 27.4708 34.173 27.5135 34.29C27.8545 34.8013 28.2008 34.812 28.5525 34.322C28.7018 33.9917 28.7872 33.7892 28.8085 33.7145C28.9365 33.3202 29.0803 32.7553 29.24 32.02C29.272 31.86 29.312 31.6095 29.36 31.2685C29.408 30.9275 29.4533 30.6612 29.496 30.4695C29.528 30.4802 29.5813 30.5015 29.656 30.5335C29.7307 30.5655 29.784 30.5868 29.816 30.5975C29.8587 30.6082 30.189 30.7253 30.807 30.949C31.425 31.1727 31.8885 31.3272 32.1975 31.4125C32.6772 31.6042 33.1087 31.6415 33.492 31.5245C33.865 31.4605 33.9822 31.2687 33.8435 30.949C33.8008 30.789 33.6837 30.5865 33.492 30.3415C33.2897 30.0858 33.0445 29.8195 32.7565 29.5425C32.4685 29.2655 32.2393 29.0577 32.069 28.919C31.8987 28.7803 31.6163 28.5565 31.222 28.2475C31.1687 28.2155 31.1047 28.1728 31.03 28.1195C30.9553 28.0662 30.9073 28.0342 30.886 28.0235C30.9073 28.0022 30.958 27.9595 31.038 27.8955C31.118 27.8315 31.1793 27.7782 31.222 27.7355C31.3287 27.6395 31.5605 27.4397 31.9175 27.136C32.2745 26.8323 32.5063 26.6325 32.613 26.5365C32.7197 26.4405 32.8795 26.2887 33.0925 26.081C33.3055 25.8733 33.4627 25.6922 33.564 25.5375C33.6653 25.3828 33.7585 25.2203 33.8435 25.05C34.0035 24.7303 33.8863 24.5278 33.492 24.4425C33.3853 24.4212 33.2895 24.4078 33.2045 24.4025C33.1195 24.3972 33.0157 24.4025 32.893 24.4185C32.7703 24.4345 32.6825 24.4478 32.6295 24.4585C32.5765 24.4692 32.454 24.4958 32.262 24.5385C32.07 24.5812 31.9368 24.6132 31.8625 24.6345C31.7132 24.6558 31.596 24.6398 31.511 24.5865C31.3617 24.5012 31.2178 24.4825 31.0795 24.5305C30.9412 24.5785 30.84 24.6823 30.776 24.842C30.7547 24.9487 30.7013 25.018 30.616 25.05C30.03 25.3057 29.6463 25.4708 29.465 25.5455C29.465 25.2152 29.3903 24.6823 29.241 23.947C29.0917 23.2117 28.9478 22.6468 28.8095 22.2525C28.6495 21.8262 28.4763 21.5412 28.29 21.3975C28.1037 21.2538 27.9225 21.2538 27.7465 21.3975C27.5705 21.5412 27.4187 21.8102 27.291 22.2045C27.0887 22.9185 26.9448 23.478 26.8595 23.883C26.7955 24.2347 26.7208 24.7622 26.6355 25.4655L26.6335 25.4665ZM26.6015 30.102C26.4735 30.1447 26.2657 30.2247 25.978 30.342C25.6903 30.4593 25.4267 30.5685 25.187 30.6695C24.9473 30.7705 24.673 30.8743 24.364 30.981C24.055 31.0877 23.786 31.1677 23.557 31.221C23.328 31.2743 23.1122 31.2983 22.9095 31.293C22.7068 31.2877 22.563 31.237 22.478 31.141C22.4247 31.0877 22.5525 30.8745 22.8615 30.5015C23.2878 30.0965 23.8845 29.5423 24.6515 28.839C24.8858 28.626 25.1415 28.4448 25.4185 28.2955C25.5252 28.2635 25.6157 28.2635 25.69 28.2955C25.9137 28.4555 26.0495 28.5487 26.0975 28.575C26.1455 28.6013 26.228 28.6733 26.345 28.791C26.462 28.9087 26.5233 28.9753 26.529 28.991C26.5347 29.0067 26.5533 29.0892 26.585 29.2385C26.6167 29.3878 26.63 29.505 26.625 29.59C26.62 29.675 26.612 29.8455 26.601 30.1015L26.6015 30.102ZM33.5705 31.205C33.2402 31.2797 32.8992 31.2797 32.5475 31.205C31.8762 31.0557 30.8585 30.6773 29.4945 30.07C29.5052 29.9527 29.5158 29.7715 29.5265 29.5265C29.5372 29.2815 29.5478 29.095 29.5585 28.967C29.5585 28.903 29.6012 28.839 29.6865 28.775C29.7292 28.743 29.7958 28.703 29.8865 28.655C29.9772 28.607 30.0438 28.567 30.0865 28.535C30.3315 28.3643 30.494 28.2818 30.574 28.2875C30.654 28.2932 30.8058 28.381 31.0295 28.551C31.9885 29.2437 32.6758 29.851 33.0915 30.373C33.3578 30.6607 33.5177 30.9377 33.571 31.204L33.5705 31.205ZM28.12 21.6305C28.2587 21.6518 28.4238 22.0195 28.6155 22.7335C28.8072 23.4475 28.9297 24.0815 28.983 24.6355C29.0577 25.0085 29.1003 25.3708 29.111 25.7225C29.0363 25.7545 28.8925 25.8292 28.6795 25.9465C28.4665 26.0638 28.2907 26.149 28.152 26.202C28.0667 26.2553 27.992 26.2553 27.928 26.202L26.969 25.7225C26.9797 25.6372 27.0143 25.3442 27.073 24.8435C27.1317 24.3428 27.185 23.9618 27.233 23.7005C27.281 23.4392 27.3477 23.1195 27.433 22.7415C27.5183 22.3635 27.6168 22.0838 27.7285 21.9025C27.8402 21.7212 27.9707 21.6307 28.12 21.631V21.6305ZM29.5265 25.93C29.5372 25.93 29.7023 25.8553 30.022 25.706C30.3417 25.5567 30.5868 25.4502 30.7575 25.3865C30.8002 25.3545 30.8695 25.3652 30.9655 25.4185C31.2745 25.5358 31.525 25.4507 31.717 25.163C31.749 25.0777 31.781 25.0137 31.813 24.971C32.6547 24.726 33.2567 24.6727 33.619 24.811C33.5763 24.971 33.4805 25.1468 33.3315 25.3385C33.1185 25.5942 32.7135 26.0097 32.1165 26.585C31.9458 26.745 31.6982 26.9448 31.3735 27.1845C31.0488 27.4242 30.8437 27.576 30.758 27.64C30.6513 27.7467 30.5128 27.7467 30.3425 27.64C29.9162 27.363 29.6685 27.1525 29.5995 27.0085C29.5305 26.8645 29.5065 26.5048 29.5275 25.9295L29.5265 25.93ZM27.7365 33.922C27.6618 33.8047 27.5553 33.5437 27.417 33.139C27.3637 32.9153 27.385 32.7448 27.481 32.6275C27.6833 32.3932 27.6353 32.1587 27.337 31.924C27.2197 31.828 27.161 31.7587 27.161 31.716C27.1397 31.556 27.105 31.3162 27.057 30.9965C27.009 30.6768 26.9797 30.4423 26.969 30.293C27.182 30.165 27.5017 29.9945 27.928 29.7815C28.024 29.7815 28.0987 29.7922 28.152 29.8135C28.3757 29.8882 28.6953 30.048 29.111 30.293C28.7593 32.9357 28.429 34.289 28.12 34.353C27.9497 34.353 27.8218 34.2092 27.7365 33.9215V33.922ZM22.4775 24.763C22.5202 24.6563 22.7918 24.6563 23.2925 24.763C24.0278 24.8697 25.1307 25.2587 26.601 25.93C26.601 26.2283 26.5743 26.5907 26.521 27.017C26.521 27.1237 26.473 27.1877 26.377 27.209C26.196 27.369 26.0308 27.4808 25.8815 27.5445C25.7112 27.6618 25.5967 27.7205 25.538 27.7205C25.4793 27.7205 25.3542 27.6512 25.1625 27.5125C25.1092 27.4698 25.016 27.4032 24.883 27.3125C24.75 27.2218 24.6462 27.1445 24.5715 27.0805C24.3265 26.9102 24.2253 26.7343 24.268 26.553C24.2787 26.425 24.22 26.3132 24.092 26.2175C23.964 26.1218 23.8255 26.0845 23.6765 26.1055C23.5485 26.1482 23.4313 26.1162 23.325 26.0095C22.7923 25.4982 22.51 25.0827 22.478 24.763H22.4775ZM29.159 28.072C29.127 28.285 29.1057 28.4262 29.095 28.4955C29.0843 28.5648 29.0417 28.6502 28.967 28.7515C28.8923 28.8528 28.7805 28.9407 28.6315 29.015C28.3118 29.1643 28.1147 29.239 28.04 29.239C27.9653 29.239 27.7735 29.1643 27.4645 29.015C27.1768 28.8443 27.009 28.7165 26.961 28.6315C26.913 28.5465 26.8783 28.328 26.857 27.976C26.8463 27.539 27.0328 27.2193 27.4165 27.017C27.6508 26.857 27.856 26.777 28.032 26.777C28.208 26.777 28.4132 26.857 28.6475 27.017C28.9138 27.177 29.0657 27.2968 29.103 27.3765C29.1403 27.4562 29.159 27.688 29.159 28.072V28.072ZM25.818 28.024C26.1483 27.811 26.3828 27.6672 26.5215 27.5925V28.4235C26.1698 28.2105 25.9353 28.0773 25.818 28.024ZM26.905 26.889V26.074C27.0223 26.1273 27.1608 26.194 27.3205 26.274L27.656 26.442C27.4217 26.6123 27.1713 26.7615 26.905 26.8895V26.889ZM27.6565 29.5265C27.2622 29.7395 27.0118 29.8673 26.9055 29.91V29.095C27.0122 29.1483 27.1427 29.223 27.297 29.319C27.4513 29.415 27.5712 29.4843 27.6565 29.527V29.5265ZM30.2455 28.024C30.0218 28.1307 29.8033 28.2638 29.59 28.4235V27.5925C29.622 27.6138 29.7152 27.6752 29.8695 27.7765C30.0238 27.8778 30.149 27.9605 30.245 28.0245L30.2455 28.024ZM28.4235 26.4895C28.5088 26.4468 28.6313 26.3775 28.791 26.2815C28.9507 26.1855 29.0732 26.1162 29.1585 26.0735C29.1585 26.1802 29.1612 26.3213 29.1665 26.497C29.1718 26.6727 29.1745 26.8085 29.1745 26.9045C28.9615 26.7765 28.711 26.638 28.423 26.489L28.4235 26.4895ZM29.159 29.095C29.159 29.617 29.143 29.8727 29.111 29.862C29.0683 29.8407 28.8392 29.7288 28.4235 29.5265C28.7965 29.3135 29.0417 29.1697 29.159 29.095ZM28.024 27.193C27.8003 27.193 27.6138 27.273 27.4645 27.433C27.3152 27.593 27.2405 27.7902 27.2405 28.0245C27.2405 28.2268 27.3178 28.408 27.4725 28.568C27.6272 28.728 27.8217 28.808 28.056 28.808C28.2797 28.808 28.4688 28.7255 28.6235 28.5605C28.7782 28.3955 28.8555 28.201 28.8555 27.977C28.8555 27.764 28.7755 27.5802 28.6155 27.4255C28.4555 27.2708 28.2583 27.1935 28.024 27.1935V27.193Z" fill="#D0CAF4"/>
</g>
<circle cx="18" cy="10" r="9" fill="white" stroke="#CCC6F3" stroke-width="2"/>
<path d="M10 10.008C10 11.0843 10.2105 12.1153 10.6315 13.101C11.0525 14.0867 11.62 14.9392 12.334 15.6585C13.048 16.3778 13.9005 16.948 14.8915 17.369C15.8825 17.79 16.9215 18.0005 18.0085 18.0005C19.0848 18.0005 20.1158 17.79 21.1015 17.369C22.0872 16.948 22.9397 16.3805 23.659 15.6665C24.3783 14.9525 24.9485 14.1 25.3695 13.109C25.7905 12.118 26.001 11.079 26.001 9.992C26.001 8.55333 25.644 7.21867 24.93 5.988C24.216 4.75733 23.2463 3.785 22.021 3.071C20.7957 2.357 19.4583 2 18.009 2C16.5597 2 15.2197 2.357 13.989 3.071C12.7583 3.785 11.786 4.75467 11.072 5.98C10.358 7.20533 10.001 8.548 10.001 10.008H10ZM17.6885 10.6155C17.9975 10.2212 18.445 9.64833 19.031 8.897C19.617 8.14567 20.0378 7.60483 20.2935 7.2745H16.841L16.809 9.0805C16.7983 10.2952 16.809 10.9078 16.841 10.9185C16.8623 11.2595 16.9955 11.4887 17.2405 11.606C17.4855 11.7233 17.7572 11.6913 18.0555 11.51C18.1408 11.4673 18.2233 11.4087 18.303 11.334C18.3827 11.2593 18.4812 11.1662 18.5985 11.0545C18.7158 10.9428 18.817 10.8497 18.902 10.775C18.966 11.052 18.998 11.2278 18.998 11.3025C18.966 11.5048 18.8595 11.6647 18.6785 11.782C18.2522 12.2933 17.5328 12.4158 16.5205 12.1495C15.8812 11.9895 15.5615 11.4887 15.5615 10.647V7.2745H13.819C13.819 6.98683 13.7977 6.75233 13.755 6.571H15.529C15.657 5.63333 15.4918 4.93 15.0335 4.461C15.1615 4.429 15.3053 4.413 15.465 4.413C16.1043 4.381 16.4827 4.42367 16.6 4.541C16.7173 4.65833 16.776 5.03133 16.776 5.66V6.571H20.964C21.3903 6.571 21.678 6.71483 21.827 7.0025C20.4203 8.4625 19.5678 9.35233 19.2695 9.672C19.7278 9.69333 20.0422 9.736 20.2125 9.8C20.9692 10.077 21.502 10.6072 21.811 11.3905C22.12 12.1738 22.104 12.9757 21.763 13.796C21.4647 14.51 20.852 15.0028 19.925 15.2745C18.998 15.5462 18.2202 15.4583 17.5915 15.011C17.1652 14.6913 16.8935 14.2652 16.7765 13.7325C16.7765 13.3382 16.915 13.0718 17.192 12.9335C17.597 12.7628 17.9167 12.8215 18.151 13.1095C18.3747 13.4078 18.3747 13.7275 18.151 14.0685C18.1403 14.1005 18.1083 14.1512 18.055 14.2205C18.0017 14.2898 17.9643 14.3458 17.943 14.3885C18.561 14.7828 19.1338 14.8707 19.6615 14.652C20.1892 14.4333 20.5168 13.9725 20.6445 13.2695C20.7832 12.6728 20.7725 12.0868 20.6125 11.5115C20.5058 10.9895 20.2395 10.6378 19.8135 10.4565C19.3875 10.2752 18.924 10.2965 18.423 10.5205C18.391 10.5312 18.3085 10.5632 18.1755 10.6165C18.0425 10.6698 17.9333 10.7232 17.848 10.7765L17.6885 10.6155Z" fill="#8A7AE3"/>
<circle cx="8" cy="28" r="6.5" fill="white" stroke="black" stroke-width="3"/>
<path d="M12.036 21.087C10.7787 20.3623 9.43067 20 7.992 20C6.564 20 5.22133 20.3623 3.964 21.087C2.77067 21.801 1.81167 22.76 1.087 23.964C0.362333 25.2213 0 26.564 0 27.992C0 29.4307 0.362333 30.7787 1.087 32.036C1.81167 33.2293 2.77067 34.1883 3.964 34.913C5.22133 35.6377 6.56933 36 8.008 36C9.436 36 10.7787 35.6377 12.036 34.913C13.24 34.1883 14.199 33.2293 14.913 32.036C15.6377 30.7787 16 29.4307 16 27.992C16 26.564 15.6377 25.2213 14.913 23.964C14.199 22.76 13.24 21.801 12.036 21.087V21.087ZM12.2595 26.825C12.1955 27.0807 12.0837 27.4643 11.924 27.976C11.8707 28.1463 11.804 28.3648 11.724 28.6315C11.644 28.8982 11.588 29.074 11.556 29.159C11.4813 29.3827 11.3642 29.6012 11.2045 29.8145C11.0552 30.0062 10.8793 30.1607 10.677 30.278L10.629 30.31L10.1655 30.55C10.0375 30.5927 9.835 30.614 9.558 30.614H3.8355L4.235 29.3035H9.6215L10.4365 26.698H5.082L5.4815 25.3875H11.4595C11.5982 25.3875 11.742 25.4195 11.891 25.4835C12.0617 25.5582 12.1895 25.6807 12.2745 25.851C12.3492 26.011 12.3812 26.1602 12.3705 26.2985C12.3705 26.4158 12.3332 26.5917 12.2585 26.826L12.2595 26.825ZM3.6285 28.5995L3.996 27.4005H7.177L6.8095 28.5995H3.6285Z" fill="#D0CAF4"/>
<defs>
<clipPath id="clip0">
<path d="M20 20H36V36H20V20Z" fill="white"/>
</clipPath>
</defs>
</svg>
