<svg width="32" height="37" viewBox="0 0 32 37" fill="none" xmlns="http://www.w3.org/2000/svg">
<g clip-path="url(#clip0)">
<path d="M23.4063 23.3203H22.1067V26.701H23.4063V23.3203Z" fill="#C9C7F2"/>
<path d="M13.004 26.701H19.5047V23.3203H10.4021V26.701H13.004Z" fill="#C9C7F2"/>
<path d="M6.50086 26.701H10.4023V23.3203H3.90161V26.701H6.50086Z" fill="#938FE5"/>
<path d="M1.29962 23.3203H0V26.701H1.29962V23.3203Z" fill="#938FE5"/>
<path d="M3.90142 23.3203H1.29956V26.701H2.59919H3.89881V23.3203H3.90142Z" fill="#7F7FD3"/>
<path d="M22.1067 23.3203H19.5049V26.701H22.1067V23.3203Z" fill="#E8E8F9"/>
<path d="M13.0042 30.0843H20.8071H22.1067V27.2231H13.0042V30.0843Z" fill="#C9C7F2"/>
<path opacity="0.3" d="M13.0042 30.0843H20.8071H22.1067V27.2231H13.0042V30.0843Z" fill="#5848D5"/>
<path d="M26.0081 27.2231H24.7085V30.0843H26.0081V27.2231Z" fill="#C9C7F2"/>
<path opacity="0.3" d="M26.0081 27.2231H24.7085V30.0843H26.0081V27.2231Z" fill="#5848D5"/>
<path d="M13.0041 27.2231H6.50073V30.0843H11.7018H13.0015V27.2231H13.0041Z" fill="#938FE5"/>
<path opacity="0.3" d="M13.0041 27.2231H6.50073V30.0843H11.7018H13.0015V27.2231H13.0041Z" fill="#5848D5"/>
<path d="M3.90143 27.2231H2.60181V30.0843H3.90143V27.2231V27.2231Z" fill="#938FE5"/>
<path opacity="0.3" d="M3.90143 27.2231H2.60181V30.0843H3.90143V27.2231V27.2231Z" fill="#5848D5"/>
<path d="M6.50078 27.2231H3.89893V30.0843H5.19855H6.49817V27.2231H6.50078Z" fill="#7F7FD3"/>
<path opacity="0.3" d="M6.50078 27.2231H3.89893V30.0843H5.19855H6.49817V27.2231H6.50078Z" fill="#5848D5"/>
<path d="M22.1067 27.2231V30.0843H23.4063H24.7059V27.2231H22.1067Z" fill="#E8E8F9"/>
<path opacity="0.3" d="M22.1067 27.2231V30.0843H23.4063H24.7059V27.2231H22.1067Z" fill="#5848D5"/>
<path d="M13.004 30.0845H11.7043V33.4652H14.3062H20.8069V30.0845H13.004Z" fill="#C9C7F2"/>
<path opacity="0.2" d="M13.004 30.0845H11.7043V33.4652H14.3062H20.8069V30.0845H13.004Z" fill="#5848D5"/>
<path d="M24.7059 30.0845H23.4062V33.4652H24.7059V30.0845Z" fill="#C9C7F2"/>
<path opacity="0.2" d="M24.7059 30.0845H23.4062V33.4652H24.7059V30.0845Z" fill="#5848D5"/>
<path d="M2.60179 30.0845H1.29956V33.4652H2.59918V30.0845H2.60179Z" fill="#938FE5"/>
<path opacity="0.2" d="M2.60179 30.0845H1.29956V33.4652H2.59918V30.0845H2.60179Z" fill="#5848D5"/>
<path d="M11.7019 33.4652V30.0845H6.5008H5.20117V33.4652H7.80303H11.7019Z" fill="#938FE5"/>
<path opacity="0.2" d="M11.7019 33.4652V30.0845H6.5008H5.20117V33.4652H7.80303H11.7019Z" fill="#5848D5"/>
<path d="M5.20106 30.0845H3.90143H2.60181V33.4652H3.90143H5.20106V30.0845Z" fill="#7F7FD3"/>
<path opacity="0.2" d="M5.20106 30.0845H3.90143H2.60181V33.4652H3.90143H5.20106V30.0845Z" fill="#5848D5"/>
<path d="M20.8044 33.4652H23.4063V30.0845H22.1067H20.8071V33.4652H20.8044Z" fill="#E8E8F9"/>
<path opacity="0.2" d="M20.8044 33.4652H23.4063V30.0845H22.1067H20.8071V33.4652H20.8044Z" fill="#5848D5"/>
<path d="M27.3077 34.2456H26.0081V36.8484H27.3077V34.2456Z" fill="#C9C7F2"/>
<path opacity="0.4" d="M27.3077 34.2456H26.0081V36.8484H27.3077V34.2456Z" fill="#5848D5"/>
<path d="M23.4063 34.2456H14.3037V36.8484H23.4063V34.2456Z" fill="#C9C7F2"/>
<path opacity="0.4" d="M23.4063 34.2456H14.3037V36.8484H23.4063V34.2456Z" fill="#5848D5"/>
<path d="M14.3037 34.2456H7.80298V36.8484H14.3037V34.2456Z" fill="#938FE5"/>
<path opacity="0.4" d="M14.3037 34.2456H7.80298V36.8484H14.3037V34.2456Z" fill="#5848D5"/>
<path d="M5.20124 34.2456H3.90161V36.8484H5.20124V34.2456Z" fill="#938FE5"/>
<path opacity="0.4" d="M5.20124 34.2456H3.90161V36.8484H5.20124V34.2456Z" fill="#5848D5"/>
<path d="M7.80303 34.2456H5.20117V36.8484H7.80303V34.2456Z" fill="#7F7FD3"/>
<path opacity="0.4" d="M7.80303 34.2456H5.20117V36.8484H7.80303V34.2456Z" fill="#5848D5"/>
<path d="M26.0057 34.2456H23.4038V36.8484H26.0057V34.2456Z" fill="#E8E8F9"/>
<path opacity="0.4" d="M26.0057 34.2456H23.4038V36.8484H26.0057V34.2456Z" fill="#5848D5"/>
<path d="M22.1067 27.2231V26.7036H19.5049H13.0042V27.2231H22.1067Z" fill="#C9C7F2"/>
<path opacity="0.3" d="M22.1067 27.2231V26.7036H19.5049H13.0042V27.2231H22.1067Z" fill="#5848D5"/>
<path opacity="0.6" d="M22.1067 27.2231V26.7036H19.5049H13.0042V27.2231H22.1067Z" fill="#3B36A8"/>
<path d="M26.0081 26.7012H24.7085V27.2207H26.0081V26.7012Z" fill="#C9C7F2"/>
<path opacity="0.3" d="M26.0081 26.7012H24.7085V27.2207H26.0081V26.7012Z" fill="#5848D5"/>
<path opacity="0.6" d="M26.0081 26.7012H24.7085V27.2207H26.0081V26.7012Z" fill="#3B36A8"/>
<path d="M13.0041 27.2231V26.7036H10.4022H6.50073V27.2231H13.0041Z" fill="#938FE5"/>
<path opacity="0.3" d="M13.0041 27.2231V26.7036H10.4022H6.50073V27.2231H13.0041Z" fill="#5848D5"/>
<path opacity="0.6" d="M13.0041 27.2231V26.7036H10.4022H6.50073V27.2231H13.0041Z" fill="#3B36A8"/>
<path d="M3.90143 26.7012H2.60181V27.2207H3.90143V26.7012V26.7012Z" fill="#938FE5"/>
<path opacity="0.3" d="M3.90143 26.7012H2.60181V27.2207H3.90143V26.7012V26.7012Z" fill="#5848D5"/>
<path opacity="0.6" d="M3.90143 26.7012H2.60181V27.2207H3.90143V26.7012V26.7012Z" fill="#3B36A8"/>
<path d="M6.50078 26.7012H3.89893V27.2207H6.50078V26.7012Z" fill="#7F7FD3"/>
<path opacity="0.3" d="M6.50078 26.7012H3.89893V27.2207H6.50078V26.7012Z" fill="#5848D5"/>
<path opacity="0.6" d="M6.50078 26.7012H3.89893V27.2207H6.50078V26.7012Z" fill="#3B36A8"/>
<path d="M22.1067 27.2231H24.7086V26.7036H23.4089H22.1093V27.2231H22.1067Z" fill="#E8E8F9"/>
<path opacity="0.3" d="M22.1067 27.2231H24.7086V26.7036H23.4089H22.1093V27.2231H22.1067Z" fill="#5848D5"/>
<path opacity="0.6" d="M22.1067 27.2231H24.7086V26.7036H23.4089H22.1093V27.2231H22.1067Z" fill="#3B36A8"/>
<path d="M27.3077 33.4651H26.0081V34.2457H27.3077V33.4651Z" fill="#C9C7F2"/>
<path opacity="0.4" d="M27.3077 33.4651H26.0081V34.2457H27.3077V33.4651Z" fill="#5848D5"/>
<path opacity="0.6" d="M27.3077 33.4651H26.0081V34.2457H27.3077V33.4651Z" fill="#3B36A8"/>
<path d="M20.8044 33.4651H14.3037V34.2457H23.4063V33.4651H20.8044Z" fill="#C9C7F2"/>
<path opacity="0.4" d="M20.8044 33.4651H14.3037V34.2457H23.4063V33.4651H20.8044Z" fill="#5848D5"/>
<path opacity="0.6" d="M20.8044 33.4651H14.3037V34.2457H23.4063V33.4651H20.8044Z" fill="#3B36A8"/>
<path d="M5.20124 33.4651H3.90161V34.2457H5.20124V33.4651Z" fill="#938FE5"/>
<path opacity="0.4" d="M5.20124 33.4651H3.90161V34.2457H5.20124V33.4651Z" fill="#5848D5"/>
<path opacity="0.6" d="M5.20124 33.4651H3.90161V34.2457H5.20124V33.4651Z" fill="#3B36A8"/>
<path d="M11.7019 33.4651H7.80298V34.2457H14.3037V33.4651H11.7019Z" fill="#938FE5"/>
<path opacity="0.4" d="M11.7019 33.4651H7.80298V34.2457H14.3037V33.4651H11.7019Z" fill="#5848D5"/>
<path opacity="0.6" d="M11.7019 33.4651H7.80298V34.2457H14.3037V33.4651H11.7019Z" fill="#3B36A8"/>
<path d="M7.80303 33.4651H5.20117V34.2457H7.80303V33.4651Z" fill="#7F7FD3"/>
<path opacity="0.4" d="M7.80303 33.4651H5.20117V34.2457H7.80303V33.4651Z" fill="#5848D5"/>
<path opacity="0.6" d="M7.80303 33.4651H5.20117V34.2457H7.80303V33.4651Z" fill="#3B36A8"/>
<path d="M23.4062 34.2457H26.0081V33.4651H24.7085H23.4089V34.2457H23.4062Z" fill="#E8E8F9"/>
<path opacity="0.4" d="M23.4062 34.2457H26.0081V33.4651H24.7085H23.4089V34.2457H23.4062Z" fill="#5848D5"/>
<path opacity="0.6" d="M23.4062 34.2457H26.0081V33.4651H24.7085H23.4089V34.2457H23.4062Z" fill="#3B36A8"/>
<path d="M30.6873 6.33594C30.7525 6.46647 30.8308 6.61005 30.896 6.75102C30.8308 6.60744 30.7655 6.46386 30.6873 6.33594Z" fill="#C9C7F2"/>
<path d="M29.4111 4.3833C29.5155 4.50078 29.6069 4.63131 29.6982 4.75922C29.6069 4.63131 29.5155 4.50078 29.4111 4.3833Z" fill="#C9C7F2"/>
<path d="M30.4133 5.83984C30.4916 5.97037 30.5569 6.08785 30.6221 6.21577C30.5569 6.08785 30.4916 5.95732 30.4133 5.83984Z" fill="#C9C7F2"/>
<path d="M29.7766 4.86621C29.8679 4.98369 29.9462 5.10116 30.0245 5.23169C29.9462 5.09855 29.8679 4.98108 29.7766 4.86621Z" fill="#C9C7F2"/>
<path d="M30.1133 5.34644C30.1916 5.46391 30.2699 5.59444 30.3351 5.71192C30.2699 5.58139 30.1916 5.46391 30.1133 5.34644Z" fill="#C9C7F2"/>
<path d="M29.6982 18.6919C29.6069 18.8224 29.5025 18.9399 29.4111 19.0678C29.5155 18.9399 29.6069 18.8094 29.6982 18.6919Z" fill="#C9C7F2"/>
<path d="M29.3485 19.1357C29.2441 19.2663 29.1267 19.3968 29.0093 19.5247C29.1267 19.4072 29.2441 19.2767 29.3485 19.1357Z" fill="#C9C7F2"/>
<path d="M30.9326 6.82935C30.9979 6.97293 31.0631 7.12956 31.1283 7.28359C31.0631 7.12956 30.9979 6.98598 30.9326 6.82935Z" fill="#C9C7F2"/>
<path d="M30.0375 18.2246C29.9592 18.3421 29.8678 18.4726 29.7896 18.5901C29.8678 18.4596 29.9461 18.3421 30.0375 18.2246Z" fill="#C9C7F2"/>
<path d="M28.5657 19.9919C28.7092 19.8483 28.8397 19.7177 28.9676 19.5637C28.8397 19.7204 28.7092 19.8639 28.5657 19.9919Z" fill="#C9C7F2"/>
<path d="M20.2956 20.8248C15.2641 20.8248 11.193 16.7523 11.193 11.719C11.193 9.33819 12.1038 7.16617 13.6122 5.53978C13.6905 5.46146 13.7557 5.38314 13.834 5.30482C12.7144 4.17444 12.0124 3.44347 12.0255 3.43042C9.90642 5.55022 8.59375 8.47669 8.59375 11.7164C8.59375 18.1803 13.834 23.4223 20.2956 23.4223C23.5342 23.4223 26.4597 22.1092 28.5657 19.9894C28.5526 20.0024 27.8245 19.3002 26.6945 18.1803C25.0557 19.8249 22.7931 20.8248 20.2956 20.8248Z" fill="#C9C7F2"/>
<path d="M29.0093 3.90283C29.1267 4.03336 29.2441 4.16389 29.3485 4.29181C29.2441 4.16128 29.1267 4.03336 29.0093 3.90283Z" fill="#C9C7F2"/>
<path d="M30.6221 17.2222C30.5569 17.3527 30.4786 17.4832 30.4133 17.5981C30.4916 17.4832 30.5569 17.3527 30.6221 17.2222Z" fill="#C9C7F2"/>
<path d="M31.8826 10.043C31.9087 10.2257 31.9348 10.4085 31.9478 10.5886C31.9217 10.4058 31.9087 10.2231 31.8826 10.043Z" fill="#C9C7F2"/>
<path d="M31.5197 15.05C31.4675 15.2328 31.4153 15.4025 31.3501 15.5696C31.4153 15.4025 31.4675 15.2328 31.5197 15.05Z" fill="#C9C7F2"/>
<path d="M31.9478 12.8521C31.9348 13.0348 31.9087 13.2175 31.8826 13.3977C31.9087 13.2149 31.9217 13.0348 31.9478 12.8521Z" fill="#C9C7F2"/>
<path d="M31.3372 15.6086C31.285 15.7783 31.2198 15.935 31.1545 16.102C31.2198 15.935 31.285 15.7783 31.3372 15.6086Z" fill="#C9C7F2"/>
<path d="M31.8825 13.3975C31.8042 13.9561 31.6868 14.5044 31.5198 15.05C31.6737 14.5174 31.7912 13.9692 31.8825 13.3975Z" fill="#C9C7F2"/>
<path d="M31.9868 11.1733C31.9999 11.3561 31.9999 11.5388 31.9999 11.719C31.9999 11.5388 31.9999 11.3561 31.9868 11.1733Z" fill="#C9C7F2"/>
<path d="M31.9869 12.2932C31.9739 12.476 31.9608 12.6587 31.9478 12.8258C31.9608 12.6561 31.9739 12.4733 31.9869 12.2932Z" fill="#C9C7F2"/>
<path d="M31.9999 11.719C31.9999 11.9017 31.9999 12.0845 31.9868 12.2646C31.9999 12.0845 31.9999 11.9017 31.9999 11.719Z" fill="#C9C7F2"/>
<path d="M30.3351 17.7285C30.2568 17.846 30.1916 17.9765 30.1133 18.094C30.1916 17.9765 30.2699 17.859 30.3351 17.7285Z" fill="#C9C7F2"/>
<path d="M31.1545 7.33569C31.2198 7.49233 31.285 7.66202 31.3372 7.82909C31.285 7.66202 31.2198 7.50538 31.1545 7.33569Z" fill="#C9C7F2"/>
<path d="M28.5657 3.44604C28.7092 3.58963 28.8397 3.73321 28.9676 3.87418C28.8397 3.72016 28.7092 3.57657 28.5657 3.44604Z" fill="#C9C7F2"/>
<path d="M31.3501 7.85791C31.4153 8.0276 31.4675 8.21034 31.5197 8.37742C31.4675 8.20773 31.4153 8.03804 31.3501 7.85791Z" fill="#C9C7F2"/>
<path d="M25.2773 1.11987C25.4209 1.18514 25.5514 1.2504 25.6923 1.32872C25.5487 1.24779 25.4078 1.18253 25.2773 1.11987Z" fill="#C9C7F2"/>
<path d="M31.1283 16.157C31.0631 16.3136 30.9979 16.4572 30.9326 16.6112C30.9979 16.4546 31.0631 16.311 31.1283 16.157Z" fill="#C9C7F2"/>
<path d="M30.8936 16.7026C30.8283 16.8462 30.7631 16.9767 30.6848 17.1177C30.7657 16.9741 30.831 16.8332 30.8936 16.7026Z" fill="#C9C7F2"/>
<path d="M31.5198 8.39038C31.6764 8.93599 31.8068 9.48422 31.8825 10.0429C31.7912 9.46856 31.6737 8.92294 31.5198 8.39038Z" fill="#C9C7F2"/>
<path d="M31.9478 10.6147C31.9608 10.7975 31.9739 10.9802 31.9869 11.1473C31.9739 10.9646 31.9608 10.7844 31.9478 10.6147Z" fill="#C9C7F2"/>
<path d="M19.7502 0.0259924C19.9329 0.0129395 20.1156 0.0129395 20.2957 0.0129395C20.1156 0.0129395 19.9329 0.0129395 19.7502 0.0259924Z" fill="#C9C7F2"/>
<path d="M20.2957 0.0129395C20.4783 0.0129395 20.661 0.0129395 20.8411 0.0259924C20.661 0.0129395 20.4783 0.0129395 20.2957 0.0129395Z" fill="#C9C7F2"/>
<path d="M21.4282 0.0651855C21.6109 0.0782385 21.7936 0.104344 21.9736 0.13045C21.791 0.104344 21.6109 0.0912915 21.4282 0.0651855Z" fill="#C9C7F2"/>
<path d="M20.8696 0.026123C21.0523 0.039176 21.235 0.052229 21.402 0.0652819C21.2324 0.052229 21.0497 0.039176 20.8696 0.026123Z" fill="#C9C7F2"/>
<path d="M18.6201 0.13045C18.8028 0.104344 18.9855 0.0782385 19.1656 0.0651855C18.9829 0.0912915 18.8002 0.104344 18.6201 0.13045Z" fill="#C9C7F2"/>
<path d="M26.7988 1.97632C26.9163 2.05464 27.0467 2.14601 27.1642 2.22432C27.0311 2.14601 26.9163 2.06769 26.7988 1.97632Z" fill="#C9C7F2"/>
<path d="M19.1917 0.0652819C19.3743 0.052229 19.557 0.039176 19.724 0.026123C19.5413 0.039176 19.3613 0.052229 19.1917 0.0652819Z" fill="#C9C7F2"/>
<path d="M27.2661 2.31567C27.3966 2.40704 27.514 2.51147 27.6419 2.60284C27.514 2.49842 27.3836 2.40704 27.2661 2.31567Z" fill="#C9C7F2"/>
<path d="M24.1841 0.676025C24.3537 0.728237 24.5103 0.793502 24.6773 0.858767C24.5103 0.793502 24.3537 0.728237 24.1841 0.676025Z" fill="#C9C7F2"/>
<path d="M26.303 1.67871C26.4204 1.75703 26.5509 1.82229 26.6683 1.90061C26.5509 1.82229 26.4335 1.74398 26.303 1.67871Z" fill="#C9C7F2"/>
<path d="M24.7319 0.88501C24.8885 0.950275 25.032 1.01554 25.186 1.0808C25.0294 1.01554 24.8859 0.950275 24.7319 0.88501Z" fill="#C9C7F2"/>
<path d="M25.7969 1.39136C25.9274 1.45662 26.0578 1.53494 26.1727 1.6002C26.0578 1.52189 25.9274 1.45662 25.7969 1.39136Z" fill="#C9C7F2"/>
<path d="M23.6255 0.493408C23.8082 0.54562 23.9778 0.597832 24.1448 0.663097C23.9778 0.597832 23.8082 0.54562 23.6255 0.493408Z" fill="#C9C7F2"/>
<path d="M21.9736 0.130615C22.5321 0.208933 23.0801 0.32641 23.6256 0.496098C23.0932 0.339462 22.5452 0.221986 21.9736 0.130615Z" fill="#C9C7F2"/>
<path d="M14.9143 1.32628C15.0448 1.26101 15.1883 1.1827 15.3292 1.11743C15.1857 1.1827 15.0422 1.24796 14.9143 1.32628Z" fill="#C9C7F2"/>
<path d="M15.9138 0.858767C16.0704 0.793502 16.24 0.728237 16.407 0.676025C16.24 0.728237 16.0834 0.793502 15.9138 0.858767Z" fill="#C9C7F2"/>
<path d="M15.4077 1.0808C15.5512 1.01554 15.7078 0.950275 15.8618 0.88501C15.7078 0.950275 15.5643 1.01554 15.4077 1.0808Z" fill="#C9C7F2"/>
<path d="M27.7097 2.66553C27.8402 2.76995 27.9707 2.88743 28.0986 3.0049C27.9811 2.88743 27.8506 2.76995 27.7097 2.66553Z" fill="#C9C7F2"/>
<path d="M28.1506 3.04395C28.2942 3.17447 28.4377 3.305 28.5786 3.44598C28.4377 3.305 28.2942 3.17447 28.1506 3.04395Z" fill="#C9C7F2"/>
<path d="M16.4358 0.663097C16.6054 0.597832 16.7881 0.54562 16.9551 0.493408C16.7855 0.54562 16.6159 0.597832 16.4358 0.663097Z" fill="#C9C7F2"/>
<path d="M16.9683 0.493412C17.5137 0.336777 18.0617 0.206247 18.6202 0.12793C18.0461 0.221911 17.5006 0.339387 16.9683 0.493412Z" fill="#C9C7F2"/>
<path d="M26.6945 18.1854L26.6814 18.1724C26.6162 18.2507 26.5379 18.3421 26.4727 18.4204C26.5509 18.3421 26.6162 18.2637 26.6945 18.1854Z" fill="#3B36A8"/>
<path opacity="0.3" d="M28.9702 3.86377C28.9833 3.87682 28.9963 3.88988 29.0094 3.90293C28.9963 3.88988 28.9833 3.87682 28.9702 3.86377Z" fill="white"/>
<path opacity="0.3" d="M30.6221 6.21851C30.6482 6.25766 30.6612 6.29682 30.6873 6.33598C30.6743 6.29682 30.6482 6.25766 30.6221 6.21851Z" fill="white"/>
<path opacity="0.3" d="M27.6313 2.60278C27.6574 2.62889 27.6835 2.64194 27.7096 2.66805C27.6835 2.63933 27.6574 2.61584 27.6313 2.60278Z" fill="white"/>
<path opacity="0.3" d="M28.1116 3.00488C28.1246 3.01794 28.1377 3.03099 28.1507 3.04404C28.1377 3.03099 28.1246 3.01794 28.1116 3.00488Z" fill="white"/>
<path opacity="0.3" d="M27.1487 2.2373C27.1878 2.26341 27.227 2.28952 27.2531 2.31562C27.227 2.28952 27.1878 2.26341 27.1487 2.2373Z" fill="white"/>
<path opacity="0.3" d="M30.0376 5.21606C30.0637 5.25522 30.0898 5.29438 30.1159 5.34659C30.0872 5.30743 30.0611 5.26828 30.0376 5.21606Z" fill="white"/>
<path opacity="0.3" d="M29.3486 4.30493C29.3747 4.33104 29.3878 4.35714 29.4139 4.38325C29.3982 4.35714 29.3721 4.33104 29.3486 4.30493Z" fill="white"/>
<path opacity="0.3" d="M31.3372 7.83179C31.3372 7.84484 31.3502 7.85789 31.3502 7.85789C31.3502 7.85789 31.3372 7.84484 31.3372 7.83179Z" fill="white"/>
<path opacity="0.3" d="M29.6982 4.74878C29.7243 4.78794 29.7504 4.8271 29.7765 4.8532C29.7504 4.8271 29.7243 4.78794 29.6982 4.74878Z" fill="white"/>
<path opacity="0.3" d="M30.8936 6.73804C30.9066 6.76414 30.9197 6.8033 30.9327 6.82941C30.9197 6.8033 30.9066 6.7772 30.8936 6.73804Z" fill="white"/>
<path opacity="0.3" d="M31.1284 7.28345C31.1415 7.30955 31.1415 7.32261 31.1545 7.34871C31.1415 7.32261 31.1415 7.2965 31.1284 7.28345Z" fill="white"/>
<path opacity="0.3" d="M30.335 5.70947C30.3611 5.74863 30.3872 5.78779 30.4133 5.84C30.3872 5.78779 30.3611 5.74863 30.335 5.70947Z" fill="white"/>
<path opacity="0.3" d="M16.4097 0.676207C16.4228 0.676207 16.4228 0.663086 16.4359 0.663086C16.4333 0.663086 16.4228 0.676207 16.4097 0.676207Z" fill="white"/>
<path opacity="0.3" d="M30.6873 17.1045C30.6612 17.1437 30.6482 17.1828 30.6221 17.222C30.6482 17.1828 30.6743 17.1437 30.6873 17.1045Z" fill="white"/>
<path opacity="0.3" d="M25.186 1.08081C25.2121 1.09386 25.2513 1.10692 25.2774 1.11997C25.2382 1.10692 25.2121 1.09386 25.186 1.08081Z" fill="white"/>
<path opacity="0.3" d="M30.9327 16.6111C30.9197 16.6372 30.9066 16.6763 30.8936 16.7025C30.9066 16.6633 30.9197 16.6372 30.9327 16.6111Z" fill="white"/>
<path opacity="0.3" d="M24.158 0.663086C24.1711 0.663086 24.1711 0.676207 24.1842 0.676207C24.1711 0.676207 24.158 0.663086 24.158 0.663086Z" fill="white"/>
<path opacity="0.3" d="M24.6797 0.858887C24.7058 0.87194 24.7188 0.87194 24.7449 0.884993C24.7188 0.87194 24.6927 0.87194 24.6797 0.858887Z" fill="white"/>
<path opacity="0.3" d="M30.4133 17.6006C30.3872 17.6397 30.3611 17.692 30.335 17.7311C30.3611 17.692 30.3872 17.6528 30.4133 17.6006Z" fill="white"/>
<path opacity="0.3" d="M29.0094 19.5376C28.9963 19.5507 28.9833 19.5637 28.9702 19.5768C28.9833 19.5637 28.9963 19.5507 29.0094 19.5376Z" fill="white"/>
<path opacity="0.3" d="M29.7765 18.5745C29.7504 18.6136 29.7243 18.6528 29.6982 18.6789C29.7243 18.6528 29.7504 18.6136 29.7765 18.5745Z" fill="white"/>
<path opacity="0.3" d="M30.1132 18.094C30.0871 18.1332 30.061 18.1723 30.0349 18.2245C30.061 18.1723 30.0871 18.1332 30.1132 18.094Z" fill="white"/>
<path opacity="0.3" d="M29.4112 19.0574C29.3851 19.0835 29.372 19.1096 29.3459 19.1357C29.372 19.1096 29.3981 19.0835 29.4112 19.0574Z" fill="white"/>
<path opacity="0.3" d="M25.6794 1.32617C25.7186 1.35228 25.7577 1.36533 25.7969 1.39144C25.7577 1.36533 25.7186 1.33922 25.6794 1.32617Z" fill="white"/>
<path opacity="0.3" d="M31.1545 16.1047C31.1415 16.1308 31.1415 16.1439 31.1284 16.17C31.1415 16.1439 31.1415 16.1178 31.1545 16.1047Z" fill="white"/>
<path opacity="0.3" d="M26.6685 1.89795C26.7076 1.92406 26.7467 1.95016 26.7989 1.97627C26.7467 1.95016 26.7076 1.92406 26.6685 1.89795Z" fill="white"/>
<path opacity="0.3" d="M26.175 1.60034C26.2142 1.62645 26.2664 1.65255 26.3055 1.67866C26.2664 1.65255 26.2272 1.62645 26.175 1.60034Z" fill="white"/>
<path opacity="0.3" d="M15.3162 1.11997C15.3423 1.10692 15.3814 1.09386 15.4075 1.08081C15.3814 1.09386 15.3553 1.10692 15.3162 1.11997Z" fill="white"/>
<path opacity="0.3" d="M31.3502 15.5825C31.3502 15.5956 31.3372 15.5956 31.3372 15.6086C31.3372 15.5956 31.3502 15.5825 31.3502 15.5825Z" fill="white"/>
<path opacity="0.3" d="M15.8616 0.884993C15.8877 0.87194 15.9007 0.87194 15.9268 0.858887C15.9007 0.87194 15.8746 0.87194 15.8616 0.884993Z" fill="white"/>
<path d="M29.0093 19.5377C29.1267 19.4071 29.2442 19.2766 29.3485 19.1487C29.3746 19.1226 29.3877 19.0965 29.4138 19.0704C29.5182 18.9529 29.6095 18.8224 29.7009 18.6944C29.727 18.6553 29.7531 18.6161 29.7791 18.59C29.8705 18.4725 29.9488 18.3551 30.0271 18.2245C30.0532 18.1854 30.0793 18.1462 30.1054 18.094C30.1836 17.9765 30.2619 17.846 30.3272 17.7285C30.3533 17.6894 30.3794 17.6502 30.4055 17.598C30.4838 17.4675 30.549 17.35 30.6142 17.2221C30.6403 17.1829 30.6534 17.1437 30.6795 17.1046C30.7447 16.9741 30.823 16.8305 30.8883 16.6895C30.9013 16.6634 30.9144 16.6242 30.9274 16.5981C30.9927 16.4546 31.0579 16.2979 31.1231 16.1439C31.1362 16.1178 31.1362 16.1047 31.1492 16.0786C31.2145 15.922 31.2797 15.7523 31.3319 15.5852C31.3319 15.5722 31.345 15.5722 31.345 15.5591C31.4102 15.3894 31.4624 15.2067 31.5146 15.0396C31.6712 14.494 31.8017 13.9458 31.8799 13.3871C31.906 13.2044 31.9321 13.0216 31.9452 12.8415C31.9452 12.8284 31.9452 12.8284 31.9452 12.8154C31.9582 12.6326 31.9713 12.4499 31.9843 12.2828C31.9843 12.2698 31.9843 12.2698 31.9843 12.2567C31.9974 12.074 31.9974 11.8912 31.9974 11.7111C31.9974 11.5284 31.9974 11.3456 31.9843 11.1655C31.9843 11.1524 31.9843 11.1524 31.9843 11.1394C31.9713 10.9566 31.9582 10.7739 31.9452 10.6068C31.9452 10.5938 31.9452 10.5938 31.9452 10.5807C31.9321 10.398 31.906 10.2152 31.8799 10.0351C31.8017 9.47644 31.6842 8.92822 31.5146 8.38261C31.4624 8.19987 31.4102 8.03018 31.345 7.8631C31.345 7.85005 31.3319 7.83699 31.3319 7.83699C31.2797 7.66731 31.2145 7.51067 31.1492 7.34359C31.1362 7.31749 31.1362 7.30443 31.1231 7.27833C31.0579 7.12169 30.9927 6.97811 30.9274 6.82408C30.9144 6.79798 30.9013 6.75882 30.8883 6.73271C30.823 6.58913 30.7578 6.4586 30.6795 6.31763C30.6534 6.27847 30.6403 6.23931 30.6142 6.20015C30.549 6.06962 30.4707 5.93909 30.4055 5.82423C30.3794 5.78507 30.3533 5.73286 30.3272 5.6937C30.2489 5.57622 30.1836 5.44569 30.1054 5.32822C30.0793 5.28906 30.0532 5.2499 30.0271 5.19769C29.9488 5.08021 29.8574 4.94968 29.7791 4.8322C29.7531 4.79304 29.727 4.75389 29.7009 4.72778C29.6095 4.59725 29.5051 4.47977 29.4138 4.35185C29.3877 4.32575 29.3746 4.29964 29.3485 4.27354C29.2442 4.14301 29.1267 4.01248 29.0093 3.88456C28.9962 3.87151 28.9832 3.85845 28.9701 3.8454C28.8397 3.70182 28.7092 3.55824 28.5683 3.41726C28.4247 3.27368 28.2812 3.14315 28.1403 3.01523C28.1272 3.00218 28.1142 2.98913 28.1011 2.97607C27.9706 2.8586 27.8401 2.74112 27.7123 2.6367C27.6862 2.61059 27.6601 2.59754 27.634 2.57143C27.5165 2.46701 27.3861 2.37564 27.2582 2.28427C27.219 2.25816 27.1799 2.23206 27.1538 2.20595C27.0364 2.11458 26.9189 2.03626 26.7884 1.95794C26.7493 1.93184 26.7102 1.90573 26.658 1.87963C26.5405 1.80131 26.41 1.72299 26.2952 1.65773C26.2561 1.63162 26.2169 1.60551 26.1647 1.57941C26.0342 1.50109 25.9168 1.43582 25.7863 1.37056C25.7472 1.34445 25.708 1.3314 25.6689 1.3053C25.5384 1.24003 25.3949 1.16171 25.2539 1.09645C25.2278 1.0834 25.1887 1.07034 25.1626 1.05729C25.0191 0.992025 24.8625 0.92676 24.7085 0.861495C24.6824 0.848442 24.6694 0.848442 24.6433 0.835389C24.4867 0.770124 24.3171 0.70486 24.15 0.652648C24.137 0.652648 24.137 0.639595 24.124 0.639595C23.9543 0.57433 23.7716 0.522118 23.6046 0.469906C23.0592 0.313271 22.5112 0.182741 21.9527 0.104424C21.77 0.0783177 21.5873 0.0522118 21.4073 0.0391589C21.3942 0.0391589 21.3942 0.0391589 21.3812 0.0391589C21.1985 0.0261059 21.0158 0.013053 20.8488 0C20.8357 0 20.8357 0 20.8227 0C20.6661 0.013053 20.4834 0.013053 20.3034 0.013053C20.1207 0.013053 19.938 0.013053 19.7579 0.0261059C19.7449 0.0261059 19.7449 0.0261059 19.7318 0.0261059C19.5492 0.0391589 19.3665 0.0522118 19.1995 0.0652648C19.1864 0.0652648 19.1864 0.0652648 19.1734 0.0652648C18.9907 0.0783177 18.808 0.104424 18.6279 0.13053C18.0695 0.208847 17.5214 0.326324 16.976 0.496012C16.7933 0.548224 16.6237 0.600436 16.4567 0.665701C16.4436 0.665701 16.4436 0.678754 16.4306 0.678754C16.261 0.730965 16.1044 0.79623 15.9374 0.861495C15.9113 0.874548 15.8982 0.874548 15.8721 0.887601C15.7155 0.952866 15.572 1.01813 15.418 1.0834C15.3919 1.09645 15.3528 1.1095 15.3267 1.12255C15.1832 1.18782 15.0527 1.25308 14.9117 1.3314C14.8726 1.35751 14.8335 1.37056 14.7943 1.39667C14.6638 1.46193 14.5333 1.54025 14.4185 1.60551C14.3794 1.63162 14.3272 1.65773 14.288 1.68383C14.1706 1.76215 14.0401 1.82741 13.9227 1.90573C13.8835 1.93184 13.8444 1.95794 13.7922 1.98405C13.6748 2.06237 13.5443 2.15374 13.4268 2.23206C13.3877 2.25816 13.3485 2.28427 13.3224 2.31037C13.192 2.40174 13.0745 2.50617 12.9467 2.59754C12.9206 2.62364 12.8945 2.6367 12.8684 2.6628C12.7379 2.76723 12.6074 2.8847 12.4795 3.00218C12.4665 3.01523 12.4534 3.02829 12.4404 3.04134C12.2968 3.17187 12.1533 3.3024 12.0124 3.44337C11.9993 3.45642 12.7013 4.18478 13.8209 5.31777C13.847 5.29167 13.8861 5.25251 13.9122 5.2264C13.9253 5.21335 13.9383 5.2003 13.9383 5.2003C14.0297 5.10893 14.1341 5.01756 14.2385 4.92618C14.2515 4.91313 14.2776 4.90008 14.2906 4.87397C14.382 4.79566 14.4864 4.70428 14.5777 4.62597C14.6038 4.59986 14.6299 4.58681 14.656 4.57376C14.7473 4.49544 14.8387 4.43017 14.9431 4.35185C14.9692 4.32575 15.0083 4.3127 15.0344 4.28659C15.1257 4.22133 15.2171 4.15606 15.3215 4.0908C15.3606 4.06469 15.3867 4.05164 15.4259 4.02553C15.5172 3.97332 15.6085 3.90805 15.6999 3.85584C15.739 3.82974 15.7782 3.80363 15.8173 3.79058C15.9087 3.73837 16 3.68615 16.0913 3.63394C16.1305 3.60784 16.1827 3.59478 16.2218 3.56868C16.3132 3.52952 16.4045 3.47731 16.4958 3.43815C16.548 3.41204 16.5872 3.39899 16.6394 3.37288C16.7307 3.33372 16.822 3.29457 16.9134 3.25541C16.9656 3.2293 17.0178 3.21625 17.07 3.19014C17.1613 3.15098 17.2526 3.12488 17.344 3.08572C17.3962 3.07267 17.4484 3.04656 17.5136 3.03351C17.6049 3.0074 17.6963 2.98129 17.7876 2.95519C17.8398 2.94214 17.9051 2.91603 17.9573 2.90298C18.0486 2.87687 18.1399 2.85077 18.2313 2.83771C18.2965 2.82466 18.3487 2.81161 18.414 2.79855C18.5053 2.77245 18.5966 2.75939 18.701 2.74634C18.7663 2.73329 18.8185 2.72024 18.8837 2.72024C18.975 2.70718 19.0794 2.69413 19.1708 2.68108C19.236 2.66802 19.2882 2.66802 19.3534 2.65497C19.4578 2.64192 19.5753 2.64192 19.6797 2.62886C19.7318 2.62886 19.784 2.61581 19.8362 2.61581C19.9928 2.60276 20.1624 2.60276 20.3164 2.60276C20.6296 2.60276 20.9401 2.61581 21.2533 2.65497C21.4099 2.66802 21.5534 2.69413 21.7074 2.70718C26.089 3.38333 29.4321 7.16868 29.4321 11.7216C29.4321 11.8782 29.4321 12.0479 29.419 12.2019C29.419 12.2541 29.406 12.3063 29.406 12.3585C29.3929 12.463 29.3929 12.5804 29.3799 12.6849C29.3799 12.7501 29.3668 12.8023 29.3538 12.8676C29.3407 12.972 29.3277 13.0634 29.3146 13.1548C29.3016 13.22 29.2885 13.2722 29.2885 13.3375C29.2755 13.4289 29.2494 13.5202 29.2363 13.6247C29.2233 13.6899 29.2102 13.7421 29.1972 13.8074C29.1711 13.8988 29.158 13.9902 29.1319 14.0815C29.1189 14.1337 29.0928 14.199 29.0798 14.2512C29.0537 14.3426 29.0276 14.434 29.0015 14.5253C28.9884 14.5775 28.9623 14.6298 28.9493 14.695C28.9232 14.7864 28.884 14.8778 28.8579 14.9691C28.8318 15.0213 28.8188 15.0736 28.7927 15.1258C28.7535 15.2171 28.7144 15.3085 28.6752 15.3999C28.6492 15.4521 28.6361 15.4912 28.61 15.5435C28.5709 15.6348 28.5187 15.7262 28.4795 15.8176C28.4534 15.8567 28.4404 15.9089 28.4143 15.9481C28.3621 16.0395 28.3099 16.1308 28.2577 16.2222C28.2316 16.2614 28.2186 16.3005 28.1925 16.3397C28.1403 16.4311 28.075 16.5224 28.0228 16.6138C27.9967 16.653 27.9837 16.6791 27.9576 16.7182C27.8923 16.8096 27.8271 16.901 27.7619 17.0054C27.7358 17.0315 27.7227 17.0707 27.6966 17.0968C27.6314 17.1881 27.5531 17.2926 27.4748 17.3839C27.4617 17.41 27.4356 17.4361 27.4226 17.4622C27.3443 17.5667 27.266 17.658 27.1747 17.7494C27.1616 17.7625 27.1486 17.7886 27.1355 17.8016C27.0442 17.906 26.9529 18.0105 26.8485 18.1018C26.8354 18.1149 26.8354 18.1149 26.8224 18.1279C26.7963 18.154 26.7571 18.1932 26.731 18.2193C27.861 19.3393 28.5891 20.0415 28.6022 20.0285C28.7457 19.8849 28.8762 19.7413 29.0041 19.6003C28.9832 19.5638 28.9962 19.5507 29.0093 19.5377Z" fill="#C9C7F2"/>
<path opacity="0.3" d="M29.0093 19.5377C29.1267 19.4071 29.2442 19.2766 29.3485 19.1487C29.3746 19.1226 29.3877 19.0965 29.4138 19.0704C29.5182 18.9529 29.6095 18.8224 29.7009 18.6944C29.727 18.6553 29.7531 18.6161 29.7791 18.59C29.8705 18.4725 29.9488 18.3551 30.0271 18.2245C30.0532 18.1854 30.0793 18.1462 30.1054 18.094C30.1836 17.9765 30.2619 17.846 30.3272 17.7285C30.3533 17.6894 30.3794 17.6502 30.4055 17.598C30.4838 17.4675 30.549 17.35 30.6142 17.2221C30.6403 17.1829 30.6534 17.1437 30.6795 17.1046C30.7447 16.9741 30.823 16.8305 30.8883 16.6895C30.9013 16.6634 30.9144 16.6242 30.9274 16.5981C30.9927 16.4546 31.0579 16.2979 31.1231 16.1439C31.1362 16.1178 31.1362 16.1047 31.1492 16.0786C31.2145 15.922 31.2797 15.7523 31.3319 15.5852C31.3319 15.5722 31.345 15.5722 31.345 15.5591C31.4102 15.3894 31.4624 15.2067 31.5146 15.0396C31.6712 14.494 31.8017 13.9458 31.8799 13.3871C31.906 13.2044 31.9321 13.0216 31.9452 12.8415C31.9452 12.8284 31.9452 12.8284 31.9452 12.8154C31.9582 12.6326 31.9713 12.4499 31.9843 12.2828C31.9843 12.2698 31.9843 12.2698 31.9843 12.2567C31.9974 12.074 31.9974 11.8912 31.9974 11.7111C31.9974 11.5284 31.9974 11.3456 31.9843 11.1655C31.9843 11.1524 31.9843 11.1524 31.9843 11.1394C31.9713 10.9566 31.9582 10.7739 31.9452 10.6068C31.9452 10.5938 31.9452 10.5938 31.9452 10.5807C31.9321 10.398 31.906 10.2152 31.8799 10.0351C31.8017 9.47644 31.6842 8.92822 31.5146 8.38261C31.4624 8.19987 31.4102 8.03018 31.345 7.8631C31.345 7.85005 31.3319 7.83699 31.3319 7.83699C31.2797 7.66731 31.2145 7.51067 31.1492 7.34359C31.1362 7.31749 31.1362 7.30443 31.1231 7.27833C31.0579 7.12169 30.9927 6.97811 30.9274 6.82408C30.9144 6.79798 30.9013 6.75882 30.8883 6.73271C30.823 6.58913 30.7578 6.4586 30.6795 6.31763C30.6534 6.27847 30.6403 6.23931 30.6142 6.20015C30.549 6.06962 30.4707 5.93909 30.4055 5.82423C30.3794 5.78507 30.3533 5.73286 30.3272 5.6937C30.2489 5.57622 30.1836 5.44569 30.1054 5.32822C30.0793 5.28906 30.0532 5.2499 30.0271 5.19769C29.9488 5.08021 29.8574 4.94968 29.7791 4.8322C29.7531 4.79304 29.727 4.75389 29.7009 4.72778C29.6095 4.59725 29.5051 4.47977 29.4138 4.35185C29.3877 4.32575 29.3746 4.29964 29.3485 4.27354C29.2442 4.14301 29.1267 4.01248 29.0093 3.88456C28.9962 3.87151 28.9832 3.85845 28.9701 3.8454C28.8397 3.70182 28.7092 3.55824 28.5683 3.41726C28.4247 3.27368 28.2812 3.14315 28.1403 3.01523C28.1272 3.00218 28.1142 2.98913 28.1011 2.97607C27.9706 2.8586 27.8401 2.74112 27.7123 2.6367C27.6862 2.61059 27.6601 2.59754 27.634 2.57143C27.5165 2.46701 27.3861 2.37564 27.2582 2.28427C27.219 2.25816 27.1799 2.23206 27.1538 2.20595C27.0364 2.11458 26.9189 2.03626 26.7884 1.95794C26.7493 1.93184 26.7102 1.90573 26.658 1.87963C26.5405 1.80131 26.41 1.72299 26.2952 1.65773C26.2561 1.63162 26.2169 1.60551 26.1647 1.57941C26.0342 1.50109 25.9168 1.43582 25.7863 1.37056C25.7472 1.34445 25.708 1.3314 25.6689 1.3053C25.5384 1.24003 25.3949 1.16171 25.2539 1.09645C25.2278 1.0834 25.1887 1.07034 25.1626 1.05729C25.0191 0.992025 24.8625 0.92676 24.7085 0.861495C24.6824 0.848442 24.6694 0.848442 24.6433 0.835389C24.4867 0.770124 24.3171 0.70486 24.15 0.652648C24.137 0.652648 24.137 0.639595 24.124 0.639595C23.9543 0.57433 23.7716 0.522118 23.6046 0.469906C23.0592 0.313271 22.5112 0.182741 21.9527 0.104424C21.77 0.0783177 21.5873 0.0522118 21.4073 0.0391589C21.3942 0.0391589 21.3942 0.0391589 21.3812 0.0391589C21.1985 0.0261059 21.0158 0.013053 20.8488 0C20.8357 0 20.8357 0 20.8227 0C20.6661 0.013053 20.4834 0.013053 20.3034 0.013053C20.1207 0.013053 19.938 0.013053 19.7579 0.0261059C19.7449 0.0261059 19.7449 0.0261059 19.7318 0.0261059C19.5492 0.0391589 19.3665 0.0522118 19.1995 0.0652648C19.1864 0.0652648 19.1864 0.0652648 19.1734 0.0652648C18.9907 0.0783177 18.808 0.104424 18.6279 0.13053C18.0695 0.208847 17.5214 0.326324 16.976 0.496012C16.7933 0.548224 16.6237 0.600436 16.4567 0.665701C16.4436 0.665701 16.4436 0.678754 16.4306 0.678754C16.261 0.730965 16.1044 0.79623 15.9374 0.861495C15.9113 0.874548 15.8982 0.874548 15.8721 0.887601C15.7155 0.952866 15.572 1.01813 15.418 1.0834C15.3919 1.09645 15.3528 1.1095 15.3267 1.12255C15.1832 1.18782 15.0527 1.25308 14.9117 1.3314C14.8726 1.35751 14.8335 1.37056 14.7943 1.39667C14.6638 1.46193 14.5333 1.54025 14.4185 1.60551C14.3794 1.63162 14.3272 1.65773 14.288 1.68383C14.1706 1.76215 14.0401 1.82741 13.9227 1.90573C13.8835 1.93184 13.8444 1.95794 13.7922 1.98405C13.6748 2.06237 13.5443 2.15374 13.4268 2.23206C13.3877 2.25816 13.3485 2.28427 13.3224 2.31037C13.192 2.40174 13.0745 2.50617 12.9467 2.59754C12.9206 2.62364 12.8945 2.6367 12.8684 2.6628C12.7379 2.76723 12.6074 2.8847 12.4795 3.00218C12.4665 3.01523 12.4534 3.02829 12.4404 3.04134C12.2968 3.17187 12.1533 3.3024 12.0124 3.44337C11.9993 3.45642 12.7013 4.18478 13.8209 5.31777C13.847 5.29167 13.8861 5.25251 13.9122 5.2264C13.9253 5.21335 13.9383 5.2003 13.9383 5.2003C14.0297 5.10893 14.1341 5.01756 14.2385 4.92618C14.2515 4.91313 14.2776 4.90008 14.2906 4.87397C14.382 4.79566 14.4864 4.70428 14.5777 4.62597C14.6038 4.59986 14.6299 4.58681 14.656 4.57376C14.7473 4.49544 14.8387 4.43017 14.9431 4.35185C14.9692 4.32575 15.0083 4.3127 15.0344 4.28659C15.1257 4.22133 15.2171 4.15606 15.3215 4.0908C15.3606 4.06469 15.3867 4.05164 15.4259 4.02553C15.5172 3.97332 15.6085 3.90805 15.6999 3.85584C15.739 3.82974 15.7782 3.80363 15.8173 3.79058C15.9087 3.73837 16 3.68615 16.0913 3.63394C16.1305 3.60784 16.1827 3.59478 16.2218 3.56868C16.3132 3.52952 16.4045 3.47731 16.4958 3.43815C16.548 3.41204 16.5872 3.39899 16.6394 3.37288C16.7307 3.33372 16.822 3.29457 16.9134 3.25541C16.9656 3.2293 17.0178 3.21625 17.07 3.19014C17.1613 3.15098 17.2526 3.12488 17.344 3.08572C17.3962 3.07267 17.4484 3.04656 17.5136 3.03351C17.6049 3.0074 17.6963 2.98129 17.7876 2.95519C17.8398 2.94214 17.9051 2.91603 17.9573 2.90298C18.0486 2.87687 18.1399 2.85077 18.2313 2.83771C18.2965 2.82466 18.3487 2.81161 18.414 2.79855C18.5053 2.77245 18.5966 2.75939 18.701 2.74634C18.7663 2.73329 18.8185 2.72024 18.8837 2.72024C18.975 2.70718 19.0794 2.69413 19.1708 2.68108C19.236 2.66802 19.2882 2.66802 19.3534 2.65497C19.4578 2.64192 19.5753 2.64192 19.6797 2.62886C19.7318 2.62886 19.784 2.61581 19.8362 2.61581C19.9928 2.60276 20.1624 2.60276 20.3164 2.60276C20.6296 2.60276 20.9401 2.61581 21.2533 2.65497C21.4099 2.66802 21.5534 2.69413 21.7074 2.70718C26.089 3.38333 29.4321 7.16868 29.4321 11.7216C29.4321 11.8782 29.4321 12.0479 29.419 12.2019C29.419 12.2541 29.406 12.3063 29.406 12.3585C29.3929 12.463 29.3929 12.5804 29.3799 12.6849C29.3799 12.7501 29.3668 12.8023 29.3538 12.8676C29.3407 12.972 29.3277 13.0634 29.3146 13.1548C29.3016 13.22 29.2885 13.2722 29.2885 13.3375C29.2755 13.4289 29.2494 13.5202 29.2363 13.6247C29.2233 13.6899 29.2102 13.7421 29.1972 13.8074C29.1711 13.8988 29.158 13.9902 29.1319 14.0815C29.1189 14.1337 29.0928 14.199 29.0798 14.2512C29.0537 14.3426 29.0276 14.434 29.0015 14.5253C28.9884 14.5775 28.9623 14.6298 28.9493 14.695C28.9232 14.7864 28.884 14.8778 28.8579 14.9691C28.8318 15.0213 28.8188 15.0736 28.7927 15.1258C28.7535 15.2171 28.7144 15.3085 28.6752 15.3999C28.6492 15.4521 28.6361 15.4912 28.61 15.5435C28.5709 15.6348 28.5187 15.7262 28.4795 15.8176C28.4534 15.8567 28.4404 15.9089 28.4143 15.9481C28.3621 16.0395 28.3099 16.1308 28.2577 16.2222C28.2316 16.2614 28.2186 16.3005 28.1925 16.3397C28.1403 16.4311 28.075 16.5224 28.0228 16.6138C27.9967 16.653 27.9837 16.6791 27.9576 16.7182C27.8923 16.8096 27.8271 16.901 27.7619 17.0054C27.7358 17.0315 27.7227 17.0707 27.6966 17.0968C27.6314 17.1881 27.5531 17.2926 27.4748 17.3839C27.4617 17.41 27.4356 17.4361 27.4226 17.4622C27.3443 17.5667 27.266 17.658 27.1747 17.7494C27.1616 17.7625 27.1486 17.7886 27.1355 17.8016C27.0442 17.906 26.9529 18.0105 26.8485 18.1018C26.8354 18.1149 26.8354 18.1149 26.8224 18.1279C26.7963 18.154 26.7571 18.1932 26.731 18.2193C27.861 19.3393 28.5891 20.0415 28.6022 20.0285C28.7457 19.8849 28.8762 19.7413 29.0041 19.6003C28.9832 19.5638 28.9962 19.5507 29.0093 19.5377Z" fill="white"/>
<path d="M15.4207 4.03346C15.512 3.98125 15.6033 3.91598 15.6947 3.86377C15.6033 3.91598 15.512 3.96819 15.4207 4.03346Z" fill="#5848D5"/>
<path opacity="0.3" d="M15.4207 4.03346C15.512 3.98125 15.6033 3.91598 15.6947 3.86377C15.6033 3.91598 15.512 3.96819 15.4207 4.03346Z" fill="white"/>
<path d="M18.8655 2.73057C18.9568 2.71751 19.0612 2.70446 19.1525 2.69141C19.0612 2.70446 18.9699 2.70446 18.8655 2.73057Z" fill="#5848D5"/>
<path opacity="0.3" d="M18.8655 2.73057C18.9568 2.71751 19.0612 2.70446 19.1525 2.69141C19.0612 2.70446 18.9699 2.70446 18.8655 2.73057Z" fill="white"/>
<path d="M19.3352 2.66551C19.4396 2.65246 19.557 2.65246 19.6614 2.6394C19.5544 2.6394 19.4526 2.65246 19.3352 2.66551Z" fill="#5848D5"/>
<path opacity="0.3" d="M19.3352 2.66551C19.4396 2.65246 19.557 2.65246 19.6614 2.6394C19.5544 2.6394 19.4526 2.65246 19.3352 2.66551Z" fill="white"/>
<path d="M17.5137 3.05708C17.605 3.03097 17.6963 3.00487 17.7877 2.97876C17.6963 2.99181 17.605 3.01792 17.5137 3.05708Z" fill="#5848D5"/>
<path opacity="0.3" d="M17.5137 3.05708C17.605 3.03097 17.6963 3.00487 17.7877 2.97876C17.6963 2.99181 17.605 3.01792 17.5137 3.05708Z" fill="white"/>
<path d="M17.9573 2.91341C18.0486 2.8873 18.14 2.8612 18.2313 2.84814C18.1373 2.87425 18.046 2.90036 17.9573 2.91341Z" fill="#5848D5"/>
<path opacity="0.3" d="M17.9573 2.91341C18.0486 2.8873 18.14 2.8612 18.2313 2.84814C18.1373 2.87425 18.046 2.90036 17.9573 2.91341Z" fill="white"/>
<path d="M18.4114 2.80905C18.5027 2.78294 18.5941 2.76989 18.6984 2.75684C18.5941 2.76989 18.5027 2.79599 18.4114 2.80905Z" fill="#5848D5"/>
<path opacity="0.3" d="M18.4114 2.80905C18.5027 2.78294 18.5941 2.76989 18.6984 2.75684C18.5941 2.76989 18.5027 2.79599 18.4114 2.80905Z" fill="white"/>
<path d="M19.8154 2.62878C19.972 2.61572 20.1416 2.61572 20.2956 2.61572C20.1416 2.61572 19.972 2.61572 19.8154 2.62878Z" fill="#5848D5"/>
<path opacity="0.3" d="M19.8154 2.62878C19.972 2.61572 20.1416 2.61572 20.2956 2.61572C20.1416 2.61572 19.972 2.61572 19.8154 2.62878Z" fill="white"/>
<path d="M29.3223 12.8521C29.3093 12.9565 29.2963 13.0478 29.2832 13.1392C29.3093 13.0478 29.3093 12.9565 29.3223 12.8521Z" fill="#5848D5"/>
<path opacity="0.3" d="M29.3223 12.8521C29.3093 12.9565 29.2963 13.0478 29.2832 13.1392C29.3093 13.0478 29.3093 12.9565 29.3223 12.8521Z" fill="white"/>
<path d="M29.3981 11.719C29.3981 11.8756 29.3981 12.0453 29.385 12.1993C29.3981 12.0453 29.3981 11.8756 29.3981 11.719Z" fill="#5848D5"/>
<path opacity="0.3" d="M29.3981 11.719C29.3981 11.8756 29.3981 12.0453 29.385 12.1993C29.3981 12.0453 29.3981 11.8756 29.3981 11.719Z" fill="white"/>
<path d="M29.372 12.3586C29.359 12.4631 29.359 12.5805 29.3459 12.685C29.359 12.5649 29.372 12.4605 29.372 12.3586Z" fill="#5848D5"/>
<path opacity="0.3" d="M29.372 12.3586C29.359 12.4631 29.359 12.5805 29.3459 12.685C29.359 12.5649 29.372 12.4605 29.372 12.3586Z" fill="white"/>
<path d="M15.0422 4.29174C15.1336 4.22648 15.2249 4.16121 15.3293 4.09595C15.2249 4.16121 15.1336 4.22648 15.0422 4.29174Z" fill="#5848D5"/>
<path opacity="0.3" d="M15.0422 4.29174C15.1336 4.22648 15.2249 4.16121 15.3293 4.09595C15.2249 4.16121 15.1336 4.22648 15.0422 4.29174Z" fill="white"/>
<path d="M15.8225 3.79848C15.9138 3.74627 16.0052 3.69406 16.0965 3.64185C16.0052 3.69406 15.9138 3.74627 15.8225 3.79848Z" fill="#5848D5"/>
<path opacity="0.3" d="M15.8225 3.79848C15.9138 3.74627 16.0052 3.69406 16.0965 3.64185C16.0052 3.69406 15.9138 3.74627 15.8225 3.79848Z" fill="white"/>
<path d="M16.6421 3.38066C16.7334 3.3415 16.8248 3.30234 16.9161 3.26318C16.8248 3.30495 16.7334 3.34411 16.6421 3.38066Z" fill="#5848D5"/>
<path opacity="0.3" d="M16.6421 3.38066C16.7334 3.3415 16.8248 3.30234 16.9161 3.26318C16.8248 3.30495 16.7334 3.34411 16.6421 3.38066Z" fill="white"/>
<path d="M17.0725 3.20062C17.1638 3.16146 17.2552 3.13535 17.3465 3.09619C17.2526 3.13535 17.1638 3.17451 17.0725 3.20062Z" fill="#5848D5"/>
<path opacity="0.3" d="M17.0725 3.20062C17.1638 3.16146 17.2552 3.13535 17.3465 3.09619C17.2526 3.13535 17.1638 3.17451 17.0725 3.20062Z" fill="white"/>
<path d="M16.2271 3.57657C16.3184 3.53742 16.4097 3.4852 16.5011 3.44604C16.4097 3.4852 16.3184 3.52436 16.2271 3.57657Z" fill="#5848D5"/>
<path opacity="0.3" d="M16.2271 3.57657C16.3184 3.53742 16.4097 3.4852 16.5011 3.44604C16.4097 3.4852 16.3184 3.52436 16.2271 3.57657Z" fill="white"/>
<path d="M28.3727 15.9219C28.3205 16.0132 28.2683 16.1046 28.2161 16.196C28.2683 16.1046 28.3205 16.0132 28.3727 15.9219Z" fill="#5848D5"/>
<path opacity="0.3" d="M28.3727 15.9219C28.3205 16.0132 28.2683 16.1046 28.2161 16.196C28.2683 16.1046 28.3205 16.0132 28.3727 15.9219Z" fill="white"/>
<path d="M27.9159 16.7026C27.8507 16.794 27.7855 16.8854 27.7202 16.9898C27.7855 16.8854 27.8507 16.794 27.9159 16.7026Z" fill="#5848D5"/>
<path opacity="0.3" d="M27.9159 16.7026C27.8507 16.794 27.7855 16.8854 27.7202 16.9898C27.7855 16.8854 27.8507 16.794 27.9159 16.7026Z" fill="white"/>
<path d="M27.3834 17.4309C27.3051 17.5353 27.2268 17.6267 27.1355 17.7181C27.2268 17.6267 27.3051 17.5223 27.3834 17.4309Z" fill="#5848D5"/>
<path opacity="0.3" d="M27.3834 17.4309C27.3051 17.5353 27.2268 17.6267 27.1355 17.7181C27.2268 17.6267 27.3051 17.5223 27.3834 17.4309Z" fill="white"/>
<path d="M27.6574 17.0654C27.5921 17.1568 27.5138 17.2612 27.4355 17.3526C27.5138 17.2612 27.5921 17.1699 27.6574 17.0654Z" fill="#5848D5"/>
<path opacity="0.3" d="M27.6574 17.0654C27.5921 17.1568 27.5138 17.2612 27.4355 17.3526C27.5138 17.2612 27.5921 17.1699 27.6574 17.0654Z" fill="white"/>
<path d="M27.0964 17.7676C27.0051 17.872 26.9137 17.9764 26.8093 18.0678C26.9163 17.9764 27.0077 17.872 27.0964 17.7676Z" fill="#5848D5"/>
<path opacity="0.3" d="M27.0964 17.7676C27.0051 17.872 26.9137 17.9764 26.8093 18.0678C26.9163 17.9764 27.0077 17.872 27.0964 17.7676Z" fill="white"/>
<path d="M26.6946 18.1854C26.7207 18.1593 26.7598 18.1201 26.7859 18.094C26.7598 18.1332 26.7337 18.1593 26.6946 18.1854Z" fill="#5848D5"/>
<path opacity="0.3" d="M26.6946 18.1854C26.7207 18.1593 26.7598 18.1201 26.7859 18.094C26.7598 18.1332 26.7337 18.1593 26.6946 18.1854Z" fill="white"/>
<path d="M29.2573 13.3323C29.2442 13.4236 29.2181 13.515 29.2051 13.6194C29.2181 13.515 29.2442 13.4236 29.2573 13.3323Z" fill="#5848D5"/>
<path opacity="0.3" d="M29.2573 13.3323C29.2442 13.4236 29.2181 13.515 29.2051 13.6194C29.2181 13.515 29.2442 13.4236 29.2573 13.3323Z" fill="white"/>
<path d="M28.9048 14.6741C28.8787 14.7654 28.8396 14.8568 28.8135 14.9482C28.8396 14.8542 28.8787 14.7628 28.9048 14.6741Z" fill="#5848D5"/>
<path opacity="0.3" d="M28.9048 14.6741C28.8787 14.7654 28.8396 14.8568 28.8135 14.9482C28.8396 14.8542 28.8787 14.7628 28.9048 14.6741Z" fill="white"/>
<path d="M29.0485 14.2302C29.0224 14.3216 28.9963 14.413 28.9702 14.5043C28.9963 14.413 29.0224 14.3216 29.0485 14.2302Z" fill="#5848D5"/>
<path opacity="0.3" d="M29.0485 14.2302C29.0224 14.3216 28.9963 14.413 28.9702 14.5043C28.9963 14.413 29.0224 14.3216 29.0485 14.2302Z" fill="white"/>
<path d="M28.1508 16.311C28.0986 16.4024 28.0334 16.4938 27.9812 16.5851C28.0464 16.5068 28.0986 16.4155 28.1508 16.311Z" fill="#5848D5"/>
<path opacity="0.3" d="M28.1508 16.311C28.0986 16.4024 28.0334 16.4938 27.9812 16.5851C28.0464 16.5068 28.0986 16.4155 28.1508 16.311Z" fill="white"/>
<path d="M29.1658 13.7891C29.1397 13.8804 29.1267 13.9718 29.1006 14.0632C29.1136 13.9692 29.1397 13.8804 29.1658 13.7891Z" fill="#5848D5"/>
<path opacity="0.3" d="M29.1658 13.7891C29.1397 13.8804 29.1267 13.9718 29.1006 14.0632C29.1136 13.9692 29.1397 13.8804 29.1658 13.7891Z" fill="white"/>
<path d="M28.7483 15.1023C28.7092 15.1937 28.67 15.285 28.6309 15.3764C28.67 15.285 28.7092 15.1937 28.7483 15.1023Z" fill="#5848D5"/>
<path opacity="0.3" d="M28.7483 15.1023C28.7092 15.1937 28.67 15.285 28.6309 15.3764C28.67 15.285 28.7092 15.1937 28.7483 15.1023Z" fill="white"/>
<path d="M28.5655 15.5173C28.5264 15.6087 28.4742 15.7001 28.4351 15.7915C28.4899 15.7001 28.529 15.6087 28.5655 15.5173Z" fill="#5848D5"/>
<path opacity="0.3" d="M28.5655 15.5173C28.5264 15.6087 28.4742 15.7001 28.4351 15.7915C28.4899 15.7001 28.529 15.6087 28.5655 15.5173Z" fill="white"/>
<path d="M13.8469 5.33335C15.4467 3.96801 17.5136 3.13523 19.7762 3.13523C24.8076 3.13523 28.8788 7.20775 28.8788 12.241C28.8788 14.5044 28.0463 16.5719 26.6814 18.1722L26.6944 18.1853C26.7205 18.1592 26.7597 18.12 26.7858 18.0939C26.7988 18.0809 26.7988 18.0809 26.8119 18.0678C26.9032 17.9634 27.0076 17.872 27.0989 17.7676C27.112 17.7545 27.125 17.7284 27.1381 17.7154C27.2164 17.624 27.3077 17.5196 27.386 17.4282C27.3991 17.4021 27.4252 17.376 27.4382 17.3499C27.5165 17.2585 27.5817 17.1541 27.66 17.0627C27.6861 17.0366 27.6992 16.9975 27.7253 16.9714C27.7905 16.88 27.8558 16.7886 27.921 16.6842C27.9471 16.645 27.9601 16.6189 27.9862 16.5798C28.0384 16.4884 28.1037 16.397 28.1559 16.3057C28.182 16.2665 28.2081 16.2273 28.2211 16.1882C28.2733 16.0968 28.3255 16.0054 28.3777 15.9141C28.4038 15.8749 28.4168 15.8227 28.4429 15.7835C28.4821 15.6922 28.5343 15.6008 28.5734 15.5094C28.5995 15.4572 28.6126 15.4181 28.6387 15.3658C28.6778 15.2745 28.717 15.1831 28.7561 15.0917C28.7822 15.0395 28.7952 14.9873 28.8213 14.9351C28.8605 14.8437 28.8866 14.7524 28.9127 14.661C28.9257 14.6088 28.9518 14.5566 28.9649 14.4913C28.991 14.3999 29.0171 14.3086 29.0432 14.2172C29.0562 14.165 29.0823 14.0997 29.0954 14.0475C29.1215 13.9561 29.1476 13.8648 29.1606 13.7734C29.1737 13.7081 29.1867 13.6559 29.1997 13.5906C29.2258 13.4993 29.2389 13.4079 29.2519 13.3035C29.265 13.2382 29.278 13.186 29.278 13.1207C29.2911 13.0294 29.3041 12.9249 29.3172 12.8336C29.3302 12.7683 29.3302 12.7161 29.3433 12.6508C29.3563 12.5464 29.3563 12.4289 29.3694 12.3245C29.3694 12.2723 29.3824 12.2201 29.3824 12.1679C29.3955 12.0112 29.3955 11.8416 29.3955 11.6875C29.3955 7.13466 26.0525 3.3493 21.6838 2.68621C21.5273 2.6601 21.3837 2.64705 21.2298 2.634C20.9166 2.60789 20.6191 2.58179 20.2929 2.58179C20.1363 2.58179 19.9667 2.58179 19.8127 2.59484C19.7605 2.59484 19.7083 2.60789 19.6561 2.60789C19.5517 2.62095 19.4343 2.62095 19.3299 2.634C19.2647 2.634 19.2125 2.64705 19.1472 2.6601C19.0428 2.67316 18.9515 2.68621 18.8602 2.69926C18.7949 2.71232 18.7427 2.72537 18.6775 2.72537C18.5861 2.73842 18.4948 2.76453 18.3904 2.77758C18.3252 2.79063 18.273 2.80369 18.2077 2.81674C18.1164 2.84285 18.0251 2.8559 17.9337 2.882C17.8815 2.89506 17.8163 2.90811 17.7641 2.93422C17.6728 2.96032 17.5814 2.98643 17.4901 3.01253C17.4379 3.02559 17.3857 3.05169 17.3204 3.06475C17.2291 3.09085 17.1378 3.13001 17.0464 3.16917C16.9942 3.19528 16.942 3.20833 16.8898 3.23443C16.7985 3.27359 16.7072 3.31275 16.6158 3.35191C16.5636 3.37802 16.5245 3.39107 16.4723 3.41718C16.381 3.45633 16.2896 3.50855 16.1983 3.54771C16.1591 3.57381 16.1069 3.58686 16.0678 3.61297C15.9765 3.66518 15.8851 3.71739 15.7938 3.76961C15.7546 3.79571 15.7155 3.80876 15.6763 3.83487C15.585 3.88708 15.4937 3.95235 15.4023 4.00456C15.3632 4.03066 15.3371 4.04372 15.2979 4.06982C15.2066 4.13509 15.1153 4.20035 15.0109 4.26562C14.9848 4.29172 14.9456 4.30478 14.9195 4.33088C14.8282 4.39615 14.7238 4.47447 14.6325 4.55278C14.6064 4.56584 14.5803 4.59194 14.5542 4.60499C14.4498 4.68331 14.3584 4.76163 14.2671 4.853C14.2541 4.86605 14.228 4.87911 14.2149 4.90521C14.1105 4.99658 14.0192 5.08795 13.9148 5.17932C13.9018 5.19238 13.8887 5.20543 13.8887 5.20543C13.8626 5.23154 13.8235 5.2707 13.7974 5.2968C13.8339 5.3203 13.8469 5.33335 13.8469 5.33335Z" fill="#3B36A8"/>
<path opacity="0.3" d="M13.8469 5.33335C15.4467 3.96801 17.5136 3.13523 19.7762 3.13523C24.8076 3.13523 28.8788 7.20775 28.8788 12.241C28.8788 14.5044 28.0463 16.5719 26.6814 18.1722L26.6944 18.1853C26.7205 18.1592 26.7597 18.12 26.7858 18.0939C26.7988 18.0809 26.7988 18.0809 26.8119 18.0678C26.9032 17.9634 27.0076 17.872 27.0989 17.7676C27.112 17.7545 27.125 17.7284 27.1381 17.7154C27.2164 17.624 27.3077 17.5196 27.386 17.4282C27.3991 17.4021 27.4252 17.376 27.4382 17.3499C27.5165 17.2585 27.5817 17.1541 27.66 17.0627C27.6861 17.0366 27.6992 16.9975 27.7253 16.9714C27.7905 16.88 27.8558 16.7886 27.921 16.6842C27.9471 16.645 27.9601 16.6189 27.9862 16.5798C28.0384 16.4884 28.1037 16.397 28.1559 16.3057C28.182 16.2665 28.2081 16.2273 28.2211 16.1882C28.2733 16.0968 28.3255 16.0054 28.3777 15.9141C28.4038 15.8749 28.4168 15.8227 28.4429 15.7835C28.4821 15.6922 28.5343 15.6008 28.5734 15.5094C28.5995 15.4572 28.6126 15.4181 28.6387 15.3658C28.6778 15.2745 28.717 15.1831 28.7561 15.0917C28.7822 15.0395 28.7952 14.9873 28.8213 14.9351C28.8605 14.8437 28.8866 14.7524 28.9127 14.661C28.9257 14.6088 28.9518 14.5566 28.9649 14.4913C28.991 14.3999 29.0171 14.3086 29.0432 14.2172C29.0562 14.165 29.0823 14.0997 29.0954 14.0475C29.1215 13.9561 29.1476 13.8648 29.1606 13.7734C29.1737 13.7081 29.1867 13.6559 29.1997 13.5906C29.2258 13.4993 29.2389 13.4079 29.2519 13.3035C29.265 13.2382 29.278 13.186 29.278 13.1207C29.2911 13.0294 29.3041 12.9249 29.3172 12.8336C29.3302 12.7683 29.3302 12.7161 29.3433 12.6508C29.3563 12.5464 29.3563 12.4289 29.3694 12.3245C29.3694 12.2723 29.3824 12.2201 29.3824 12.1679C29.3955 12.0112 29.3955 11.8416 29.3955 11.6875C29.3955 7.13466 26.0525 3.3493 21.6838 2.68621C21.5273 2.6601 21.3837 2.64705 21.2298 2.634C20.9166 2.60789 20.6191 2.58179 20.2929 2.58179C20.1363 2.58179 19.9667 2.58179 19.8127 2.59484C19.7605 2.59484 19.7083 2.60789 19.6561 2.60789C19.5517 2.62095 19.4343 2.62095 19.3299 2.634C19.2647 2.634 19.2125 2.64705 19.1472 2.6601C19.0428 2.67316 18.9515 2.68621 18.8602 2.69926C18.7949 2.71232 18.7427 2.72537 18.6775 2.72537C18.5861 2.73842 18.4948 2.76453 18.3904 2.77758C18.3252 2.79063 18.273 2.80369 18.2077 2.81674C18.1164 2.84285 18.0251 2.8559 17.9337 2.882C17.8815 2.89506 17.8163 2.90811 17.7641 2.93422C17.6728 2.96032 17.5814 2.98643 17.4901 3.01253C17.4379 3.02559 17.3857 3.05169 17.3204 3.06475C17.2291 3.09085 17.1378 3.13001 17.0464 3.16917C16.9942 3.19528 16.942 3.20833 16.8898 3.23443C16.7985 3.27359 16.7072 3.31275 16.6158 3.35191C16.5636 3.37802 16.5245 3.39107 16.4723 3.41718C16.381 3.45633 16.2896 3.50855 16.1983 3.54771C16.1591 3.57381 16.1069 3.58686 16.0678 3.61297C15.9765 3.66518 15.8851 3.71739 15.7938 3.76961C15.7546 3.79571 15.7155 3.80876 15.6763 3.83487C15.585 3.88708 15.4937 3.95235 15.4023 4.00456C15.3632 4.03066 15.3371 4.04372 15.2979 4.06982C15.2066 4.13509 15.1153 4.20035 15.0109 4.26562C14.9848 4.29172 14.9456 4.30478 14.9195 4.33088C14.8282 4.39615 14.7238 4.47447 14.6325 4.55278C14.6064 4.56584 14.5803 4.59194 14.5542 4.60499C14.4498 4.68331 14.3584 4.76163 14.2671 4.853C14.2541 4.86605 14.228 4.87911 14.2149 4.90521C14.1105 4.99658 14.0192 5.08795 13.9148 5.17932C13.9018 5.19238 13.8887 5.20543 13.8887 5.20543C13.8626 5.23154 13.8235 5.2707 13.7974 5.2968C13.8339 5.3203 13.8469 5.33335 13.8469 5.33335Z" fill="white"/>
<path d="M26.5693 18.3238C26.5458 18.3525 26.5197 18.3786 26.4937 18.4073C26.5537 18.3577 26.6059 18.3003 26.6607 18.2428L26.6581 18.2402C26.6267 18.2663 26.598 18.2951 26.5693 18.3238Z" fill="#5848D5"/>
<path d="M22.386 13.8909L20.006 18.0026C19.9016 18.1827 19.7111 18.2871 19.5128 18.2871C19.15 18.2871 18.8734 17.9478 18.9595 17.5849L20.0556 12.9615H17.2319C16.8874 12.9615 16.6212 12.6561 16.6656 12.3141L17.164 8.57313L13.928 5.27856C13.9098 5.29423 13.8889 5.30989 13.8706 5.32556C13.868 5.32294 13.8654 5.32033 13.8628 5.31772C13.7845 5.38299 13.6932 5.46131 13.6149 5.52657C12.1195 7.16602 11.2087 9.33803 11.2087 11.7189C11.2087 16.7521 15.2799 20.8246 20.3113 20.8246C22.7357 20.8246 24.9383 19.877 26.5641 18.3211C26.5902 18.2898 26.6163 18.2584 26.6398 18.2271L22.386 13.8909Z" fill="#5848D5"/>
<path d="M16.6682 12.3167C16.6238 12.6587 16.89 12.9642 17.2345 12.9642H20.0555L18.9595 17.5875C18.8734 17.9478 19.15 18.2898 19.5127 18.2898C19.7111 18.2898 19.9016 18.1853 20.006 18.0052L22.386 13.8935L17.1666 8.57837L16.6682 12.3167Z" fill="#C9C7F2"/>
<path d="M26.658 18.2401C26.6788 18.2245 26.6945 18.2062 26.7154 18.1853C26.6945 18.2036 26.6762 18.2219 26.658 18.2401Z" fill="#5848D5"/>
<path d="M17.4276 6.61002C17.4667 6.32808 17.7068 6.11662 17.9939 6.11662H21.4152C21.7884 6.11662 22.0624 6.47427 21.9658 6.83454L20.9533 9.92025H23.696C24.1345 9.92025 24.4085 10.398 24.1867 10.7765L22.3834 13.891L26.645 18.2298C26.6633 18.2063 26.6815 18.1854 26.6998 18.1619C26.6972 18.1593 26.6946 18.1567 26.692 18.1541C28.0673 16.5668 28.8972 14.5018 28.8972 12.2437C28.8972 7.21046 24.826 3.13794 19.7946 3.13794C17.5607 3.13794 15.5199 3.94983 13.928 5.28384L17.164 8.57841L17.4276 6.61002Z" fill="#8E7CE9"/>
<path d="M23.6959 9.92033H20.9532L21.9657 6.83461C22.0597 6.47435 21.7883 6.1167 21.4151 6.1167H17.9938C17.7093 6.1167 17.4666 6.32816 17.4275 6.6101L17.1665 8.57588L22.3859 13.891L24.1892 10.7766C24.4084 10.3981 24.1344 9.92033 23.6959 9.92033Z" fill="#D9D7F8"/>
</g>
<defs>
<clipPath id="clip0">
<path d="M0 0H32V36.8485H0V0Z" fill="white"/>
</clipPath>
</defs>
</svg>
